<?xml version="1.0" encoding="utf-8"?>
<!-- Generator: Adobe Illustrator 25.2.3, SVG Export Plug-In . SVG Version: 6.00 Build 0)  -->
<svg version="1.1" xmlns="http://www.w3.org/2000/svg" xmlns:xlink="http://www.w3.org/1999/xlink" x="0px" y="0px"
	 viewBox="0 0 265.1 37.3" style="enable-background:new 0 0 265.1 37.3;" xml:space="preserve">
<style type="text/css">
	.st0{display:none;}
	.st1{display:inline;opacity:0.4;fill:#7D7670;}
	.st2{display:inline;opacity:0.4;fill:#70707D;}
	.st3{display:inline;opacity:0.4;fill:#FF716B;}
	.st4{display:inline;opacity:0.4;fill:#99998A;}
	.st5{fill:#E5E3E3;}
	.st6{fill:#FFFFFF;}
	.st7{fill:#36AADD;}
	.st8{fill:#E6E6E6;}
	.st9{fill:#4D4D4D;}
	.st10{fill:#EAEAEA;}
	.st11{fill:#848484;}
	.st12{fill:#FFFFFF;stroke:#E6E6E6;stroke-miterlimit:10;}
	.st13{fill:#999999;}
	.st14{fill:#96A82A;}
	.st15{fill:#BBD550;}
	.st16{fill:#29ABE2;}
	.st17{fill:#7C7C7C;}
	.st18{fill:#212121;}
	.st19{fill:#C6C6C6;}
</style>
<g id="Container_Zones" class="st0">
	<rect id="XMLID_28_" x="-2917.1" y="-442.8" class="st1" width="62.5" height="3000"/>
	<rect id="XMLID_27_" x="-2854.6" y="-442.8" class="st2" width="62.5" height="3000"/>
	<rect id="XMLID_26_" x="-2792.1" y="-442.8" class="st1" width="62.5" height="3000"/>
	<rect id="XMLID_25_" x="-2729.6" y="-442.8" class="st2" width="62.5" height="3000"/>
	<rect id="XMLID_24_" x="-2667.1" y="-442.8" class="st1" width="62.5" height="3000"/>
	<rect id="XMLID_23_" x="-2604.6" y="-442.8" class="st2" width="62.5" height="3000"/>
	<rect id="XMLID_22_" x="-2542.1" y="-442.8" class="st1" width="62.5" height="3000"/>
	<rect id="XMLID_21_" x="-2479.6" y="-442.8" class="st2" width="62.5" height="3000"/>
	<rect id="XMLID_20_" x="-2417.1" y="-442.8" class="st1" width="62.5" height="3000"/>
	<rect id="XMLID_19_" x="-2292.1" y="-442.8" class="st1" width="62.5" height="3000"/>
	<rect id="XMLID_18_" x="-2229.6" y="-442.8" class="st2" width="62.5" height="3000"/>
	<rect id="XMLID_17_" x="-2354.6" y="-442.8" class="st2" width="62.5" height="3000"/>
	<rect id="XMLID_268_" x="-1753.8" y="-442.8" class="st1" width="97.2" height="3000"/>
	<rect id="XMLID_222_" x="-1656.6" y="-442.8" class="st2" width="97.2" height="3000"/>
	<rect id="XMLID_223_" x="-1559.3" y="-442.8" class="st1" width="97.2" height="3000"/>
	<rect id="XMLID_224_" x="-1462.1" y="-442.8" class="st2" width="97.2" height="3000"/>
	<rect id="XMLID_225_" x="-1364.8" y="-442.8" class="st1" width="97.2" height="3000"/>
	<rect id="XMLID_226_" x="-1267.6" y="-442.8" class="st2" width="97.2" height="3000"/>
	<rect id="XMLID_227_" x="-1170.3" y="-442.8" class="st1" width="97.2" height="3000"/>
	<rect id="XMLID_228_" x="-1073.1" y="-442.8" class="st2" width="97.2" height="3000"/>
	<rect id="XMLID_229_" x="-975.8" y="-442.8" class="st1" width="97.2" height="3000"/>
	<rect id="XMLID_230_" x="-878.6" y="-442.8" class="st2" width="97.2" height="3000"/>
	<rect id="XMLID_231_" x="-781.3" y="-442.8" class="st1" width="97.2" height="3000"/>
	<rect id="XMLID_232_" x="-684.1" y="-442.8" class="st2" width="97.2" height="3000"/>
	<rect id="XMLID_850_" x="-4392.6" y="-442.8" class="st1" width="40" height="3000"/>
	<rect id="XMLID_849_" x="-4352.6" y="-442.8" class="st2" width="40" height="3000"/>
	<rect id="XMLID_848_" x="-4312.6" y="-442.8" class="st1" width="40" height="3000"/>
	<rect id="XMLID_847_" x="-4272.6" y="-442.8" class="st2" width="40" height="3000"/>
	<rect id="XMLID_846_" x="-4232.6" y="-442.8" class="st1" width="40" height="3000"/>
	<rect id="XMLID_845_" x="-4192.6" y="-442.8" class="st2" width="40" height="3000"/>
	<rect id="XMLID_844_" x="-4152.6" y="-442.8" class="st1" width="40" height="3000"/>
	<rect id="XMLID_843_" x="-4112.6" y="-442.8" class="st2" width="40" height="3000"/>
	<rect id="XMLID_842_" x="-4072.6" y="-442.8" class="st1" width="40" height="3000"/>
	<rect id="XMLID_841_" x="-3992.6" y="-442.8" class="st1" width="40" height="3000"/>
	<rect id="XMLID_840_" x="-3952.6" y="-442.8" class="st2" width="40" height="3000"/>
	<rect id="XMLID_839_" x="-4032.6" y="-442.8" class="st2" width="40" height="3000"/>
	<rect id="XMLID_102_" x="-3797.1" y="-442.8" class="st1" width="40" height="3000"/>
	<rect id="XMLID_100_" x="-3757.1" y="-442.8" class="st2" width="40" height="3000"/>
	<rect id="XMLID_99_" x="-3717.1" y="-442.8" class="st1" width="40" height="3000"/>
	<rect id="XMLID_98_" x="-3677.1" y="-442.8" class="st2" width="40" height="3000"/>
	<rect id="XMLID_97_" x="-3637.1" y="-442.8" class="st1" width="40" height="3000"/>
	<rect id="XMLID_96_" x="-3597.1" y="-442.8" class="st2" width="40" height="3000"/>
	<rect id="XMLID_95_" x="-3557.1" y="-442.8" class="st1" width="40" height="3000"/>
	<rect id="XMLID_94_" x="-3517.1" y="-442.8" class="st2" width="40" height="3000"/>
	<rect id="XMLID_93_" x="-3477.1" y="-442.8" class="st1" width="40" height="3000"/>
	<rect id="XMLID_91_" x="-3397.1" y="-442.8" class="st1" width="40" height="3000"/>
	<rect id="XMLID_89_" x="-3357.1" y="-442.8" class="st2" width="40" height="3000"/>
	<rect id="XMLID_87_" x="-3437.1" y="-442.8" class="st2" width="40" height="3000"/>
</g>
<g id="Padding_Zones" class="st0">
	<rect id="XMLID_86_" x="-4392.6" y="-442.8" class="st3" width="15" height="3000"/>
	<polygon id="XMLID_52_" class="st3" points="-4352.6,-442.8 -4356.7,-442.8 -4367.6,-442.8 -4367.6,2557.2 -4356.7,2557.2 
		-4352.6,2557.2 -4337.6,2557.2 -4337.6,-442.8 	"/>
	<polygon id="XMLID_51_" class="st3" points="-4312.6,-442.8 -4315.5,-442.8 -4327.6,-442.8 -4327.6,2557.2 -4315.5,2557.2 
		-4312.6,2557.2 -4297.6,2557.2 -4297.6,-442.8 	"/>
	<polygon id="XMLID_50_" class="st3" points="-4272.6,-442.8 -4275.4,-442.8 -4287.6,-442.8 -4287.6,2557.2 -4275.4,2557.2 
		-4272.6,2557.2 -4257.6,2557.2 -4257.6,-442.8 	"/>
	<polygon id="XMLID_49_" class="st3" points="-4232.6,-442.8 -4236.6,-442.8 -4247.6,-442.8 -4247.6,2557.2 -4236.6,2557.2 
		-4232.6,2557.2 -4217.6,2557.2 -4217.6,-442.8 	"/>
	<polygon id="XMLID_48_" class="st3" points="-4192.6,-442.8 -4195.6,-442.8 -4207.6,-442.8 -4207.6,2557.2 -4195.6,2557.2 
		-4192.6,2557.2 -4177.6,2557.2 -4177.6,-442.8 	"/>
	<polygon id="XMLID_47_" class="st3" points="-4152.6,-442.8 -4155.5,-442.8 -4167.6,-442.8 -4167.6,2557.2 -4155.5,2557.2 
		-4152.6,2557.2 -4137.6,2557.2 -4137.6,-442.8 	"/>
	<polygon id="XMLID_46_" class="st3" points="-4112.6,-442.8 -4116,-442.8 -4127.6,-442.8 -4127.6,2557.2 -4116,2557.2 
		-4112.6,2557.2 -4097.6,2557.2 -4097.6,-442.8 	"/>
	<polygon id="XMLID_45_" class="st3" points="-4072.6,-442.8 -4075.5,-442.8 -4087.6,-442.8 -4087.6,2557.2 -4075.5,2557.2 
		-4072.6,2557.2 -4057.6,2557.2 -4057.6,-442.8 	"/>
	<polygon id="XMLID_44_" class="st3" points="-4032.6,-442.8 -4035,-442.8 -4047.6,-442.8 -4047.6,2557.2 -4035,2557.2 
		-4032.6,2557.2 -4017.6,2557.2 -4017.6,-442.8 	"/>
	<polygon id="XMLID_43_" class="st3" points="-3992.6,-442.8 -3994.7,-442.8 -4007.6,-442.8 -4007.6,2557.2 -3994.7,2557.2 
		-3992.6,2557.2 -3977.6,2557.2 -3977.6,-442.8 	"/>
	<polygon id="XMLID_42_" class="st3" points="-3952.6,-442.8 -3955,-442.8 -3967.6,-442.8 -3967.6,2557.2 -3955,2557.2 
		-3952.6,2557.2 -3937.6,2557.2 -3937.6,-442.8 	"/>
	<rect id="XMLID_41_" x="-3927.6" y="-442.8" class="st3" width="15" height="3000"/>
	<rect id="XMLID_40_" x="-3797.1" y="-442.8" class="st3" width="15" height="3000"/>
	<polygon id="XMLID_15_" class="st3" points="-3757.1,-442.8 -3761.2,-442.8 -3772.1,-442.8 -3772.1,2557.2 -3761.2,2557.2 
		-3757.1,2557.2 -3742.1,2557.2 -3742.1,-442.8 	"/>
	<polygon id="XMLID_13_" class="st3" points="-3717.1,-442.8 -3719.9,-442.8 -3732.1,-442.8 -3732.1,2557.2 -3719.9,2557.2 
		-3717.1,2557.2 -3702.1,2557.2 -3702.1,-442.8 	"/>
	<polygon id="XMLID_12_" class="st3" points="-3677.1,-442.8 -3679.9,-442.8 -3692.1,-442.8 -3692.1,2557.2 -3679.9,2557.2 
		-3677.1,2557.2 -3662.1,2557.2 -3662.1,-442.8 	"/>
	<polygon id="XMLID_11_" class="st3" points="-3637.1,-442.8 -3641,-442.8 -3652.1,-442.8 -3652.1,2557.2 -3641,2557.2 
		-3637.1,2557.2 -3622.1,2557.2 -3622.1,-442.8 	"/>
	<polygon id="XMLID_10_" class="st3" points="-3597.1,-442.8 -3600,-442.8 -3612.1,-442.8 -3612.1,2557.2 -3600,2557.2 
		-3597.1,2557.2 -3582.1,2557.2 -3582.1,-442.8 	"/>
	<polygon id="XMLID_9_" class="st3" points="-3557.1,-442.8 -3559.9,-442.8 -3572.1,-442.8 -3572.1,2557.2 -3559.9,2557.2 
		-3557.1,2557.2 -3542.1,2557.2 -3542.1,-442.8 	"/>
	<polygon id="XMLID_8_" class="st3" points="-3517.1,-442.8 -3520.4,-442.8 -3532.1,-442.8 -3532.1,2557.2 -3520.4,2557.2 
		-3517.1,2557.2 -3502.1,2557.2 -3502.1,-442.8 	"/>
	<polygon id="XMLID_7_" class="st3" points="-3477.1,-442.8 -3479.9,-442.8 -3492.1,-442.8 -3492.1,2557.2 -3479.9,2557.2 
		-3477.1,2557.2 -3462.1,2557.2 -3462.1,-442.8 	"/>
	<polygon id="XMLID_6_" class="st3" points="-3437.1,-442.8 -3439.4,-442.8 -3452.1,-442.8 -3452.1,2557.2 -3439.4,2557.2 
		-3437.1,2557.2 -3422.1,2557.2 -3422.1,-442.8 	"/>
	<polygon id="XMLID_5_" class="st3" points="-3397.1,-442.8 -3399.1,-442.8 -3412.1,-442.8 -3412.1,2557.2 -3399.1,2557.2 
		-3397.1,2557.2 -3382.1,2557.2 -3382.1,-442.8 	"/>
	<polygon id="XMLID_3_" class="st3" points="-3357.1,-442.8 -3359.4,-442.8 -3372.1,-442.8 -3372.1,2557.2 -3359.4,2557.2 
		-3357.1,2557.2 -3342.1,2557.2 -3342.1,-442.8 	"/>
	<rect id="XMLID_2_" x="-3332.1" y="-442.8" class="st3" width="15" height="3000"/>
	<rect id="XMLID_108_" x="-2917.1" y="-442.8" class="st3" width="15" height="3000"/>
	<polygon id="XMLID_53_" class="st3" points="-2854.6,-442.8 -2859.4,-442.8 -2869.6,-442.8 -2869.6,2557.2 -2859.4,2557.2 
		-2854.6,2557.2 -2839.6,2557.2 -2839.6,-442.8 	"/>
	<polygon id="XMLID_59_" class="st3" points="-2792.1,-442.8 -2796.2,-442.8 -2807.1,-442.8 -2807.1,2557.2 -2796.2,2557.2 
		-2792.1,2557.2 -2777.1,2557.2 -2777.1,-442.8 	"/>
	<polygon id="XMLID_60_" class="st3" points="-2729.6,-442.8 -2732.8,-442.8 -2744.6,-442.8 -2744.6,2557.2 -2732.8,2557.2 
		-2729.6,2557.2 -2714.6,2557.2 -2714.6,-442.8 	"/>
	<polygon id="XMLID_61_" class="st3" points="-2667.1,-442.8 -2671.9,-442.8 -2682.1,-442.8 -2682.1,2557.2 -2671.9,2557.2 
		-2667.1,2557.2 -2652.1,2557.2 -2652.1,-442.8 	"/>
	<polygon id="XMLID_62_" class="st3" points="-2604.6,-442.8 -2609.4,-442.8 -2619.6,-442.8 -2619.6,2557.2 -2609.4,2557.2 
		-2604.6,2557.2 -2589.6,2557.2 -2589.6,-442.8 	"/>
	<polygon id="XMLID_63_" class="st3" points="-2542.1,-442.8 -2549.6,-442.8 -2557.1,-442.8 -2557.1,2557.2 -2549.6,2557.2 
		-2542.1,2557.2 -2527.1,2557.2 -2527.1,-442.8 	"/>
	<polygon id="XMLID_64_" class="st3" points="-2479.6,-442.8 -2487.1,-442.8 -2494.6,-442.8 -2494.6,2557.2 -2487.1,2557.2 
		-2479.6,2557.2 -2464.6,2557.2 -2464.6,-442.8 	"/>
	<polygon id="XMLID_65_" class="st3" points="-2417.1,-442.8 -2422.6,-442.8 -2432.1,-442.8 -2432.1,2557.2 -2422.6,2557.2 
		-2417.1,2557.2 -2402.1,2557.2 -2402.1,-442.8 	"/>
	<polygon id="XMLID_92_" class="st3" points="-2354.6,-442.8 -2358.6,-442.8 -2369.6,-442.8 -2369.6,2557.2 -2358.6,2557.2 
		-2354.6,2557.2 -2339.6,2557.2 -2339.6,-442.8 	"/>
	<polygon id="XMLID_90_" class="st3" points="-2292.2,-442.8 -2297,-442.8 -2307.2,-442.8 -2307.2,2557.2 -2297,2557.2 
		-2292.2,2557.2 -2277.2,2557.2 -2277.2,-442.8 	"/>
	<polygon id="XMLID_88_" class="st3" points="-2229.7,-442.8 -2234.6,-442.8 -2244.7,-442.8 -2244.7,2557.2 -2234.6,2557.2 
		-2229.7,2557.2 -2214.7,2557.2 -2214.7,-442.8 	"/>
	<rect id="XMLID_85_" x="-2182.2" y="-442.8" class="st3" width="15" height="3000"/>
	<rect id="XMLID_56_" x="-1753.8" y="-442.8" class="st3" width="15" height="3000"/>
	<polygon id="XMLID_55_" class="st3" points="-1656.6,-442.8 -1671.5,-442.8 -1671.5,2557.2 -1656.6,2557.2 -1641.6,2557.2 
		-1641.6,-442.8 	"/>
	<polygon id="XMLID_54_" class="st3" points="-1559.3,-442.8 -1574.3,-442.8 -1574.3,2557.2 -1559.3,2557.2 -1544.4,2557.2 
		-1544.4,-442.8 	"/>
	<polygon id="XMLID_39_" class="st3" points="-1462.1,-442.8 -1477,-442.8 -1477,2557.2 -1462.1,2557.2 -1447.1,2557.2 
		-1447.1,-442.8 	"/>
	<polygon id="XMLID_38_" class="st3" points="-1364.8,-442.8 -1379.8,-442.8 -1379.8,2557.2 -1364.8,2557.2 -1349.9,2557.2 
		-1349.9,-442.8 	"/>
	<polygon id="XMLID_37_" class="st3" points="-1267.6,-442.8 -1282.5,-442.8 -1282.5,2557.2 -1267.6,2557.2 -1252.6,2557.2 
		-1252.6,-442.8 	"/>
	<polygon id="XMLID_36_" class="st3" points="-1170.3,-442.8 -1185.3,-442.8 -1185.3,2557.2 -1170.3,2557.2 -1155.4,2557.2 
		-1155.4,-442.8 	"/>
	<polygon id="XMLID_35_" class="st3" points="-1073.1,-442.8 -1088,-442.8 -1088,2557.2 -1073.1,2557.2 -1058.1,2557.2 
		-1058.1,-442.8 	"/>
	<polygon id="XMLID_34_" class="st3" points="-975.8,-442.8 -990.8,-442.8 -990.8,2557.2 -975.8,2557.2 -960.9,2557.2 
		-960.9,-442.8 	"/>
	<polygon id="XMLID_33_" class="st3" points="-878.6,-442.8 -893.5,-442.8 -893.5,2557.2 -878.6,2557.2 -863.6,2557.2 
		-863.6,-442.8 	"/>
	<polygon id="XMLID_32_" class="st3" points="-781.3,-442.8 -796.3,-442.8 -796.3,2557.2 -781.3,2557.2 -766.4,2557.2 
		-766.4,-442.8 	"/>
	<polygon id="XMLID_31_" class="st3" points="-684.1,-442.6 -684.1,-442.8 -699,-442.8 -699,2557.2 -684.1,2557.2 -684.1,2557.4 
		-669.1,2557.4 -669.1,-442.6 	"/>
	<rect id="XMLID_30_" x="-601.8" y="-442.6" class="st3" width="15" height="3000"/>
</g>
<g id="Page_Margins" class="st0">
	<rect id="XMLID_101_" x="-1898.8" y="-442.8" class="st4" width="145" height="3000"/>
	<rect id="XMLID_233_" x="-3037.1" y="-442.8" class="st4" width="120" height="3000"/>
	<rect id="XMLID_255_" x="-2167.1" y="-442.8" class="st4" width="120" height="3000"/>
	<rect id="XMLID_162_" x="-586.8" y="-442.8" class="st4" width="148" height="3000"/>
</g>
<g id="Containers_Grid" class="st0">
</g>
<g id="Padding_Grid" class="st0">
</g>
<g id="bg">
	<rect x="-4517.1" y="-868.7" class="st5" width="4200" height="1680"/>
</g>
<g id="diseño">
	<rect x="-4392.6" y="-394.8" class="st6" width="480" height="705.4"/>
	<rect x="-3797.5" y="-394.8" class="st6" width="480" height="705.4"/>
	<rect x="-3037.9" y="-394.8" class="st6" width="990.8" height="684.3"/>
	<rect x="-1898.8" y="-363.6" class="st6" width="1460" height="653.1"/>
	<rect x="-1900.2" y="-241.9" class="st7" width="1460" height="68.8"/>
	<rect x="-975.8" y="-230.2" class="st8" width="389.1" height="435.6"/>
	<rect x="-3037.6" y="-443.9" class="st9" width="991.2" height="48"/>
	<g>
		
			<image style="overflow:visible;" width="1920" height="1080" xlink:href="7F9CF08614C28424.jpg"  transform="matrix(0.5161 0 0 0.5153 -3037.5623 -267.0457)">
		</image>
		<rect x="-2818.9" y="-359.6" style="fill:none;" width="553.7" height="39.1"/>
		<text transform="matrix(1 0 0 1 -2784.0603 -332.2753)" class="st7" style="font-family:'OpenSans-Semibold'; font-size:36px;">Cotiza tu seguro automotriz</text>
		<g>
			<rect x="-2900.7" y="-237.3" class="st6" width="40" height="16"/>
			<text transform="matrix(1 0 0 1 -2893.0283 -225.4702)" style="font-family:'OpenSans-Semibold'; font-size:12px;">1 / 3</text>
		</g>
		<g>
			<path class="st6" d="M-2839.9,254L-2839.9,254c-10.9,0-19.8-8.9-19.8-19.8v-0.4c0-10.9,8.9-19.8,19.8-19.8l0,0
				c10.9,0,19.8,8.9,19.8,19.8v0.4C-2820.1,245.2-2829,254-2839.9,254z"/>
			<g>
				<g>
					<polygon points="-2841.4,225.6 -2843.4,227.6 -2836.9,234 -2843.4,240.5 -2841.4,242.5 -2832.9,234 					"/>
				</g>
			</g>
		</g>
		<g>
			<path class="st10" d="M-2884.2,214L-2884.2,214c10.9,0,19.8,8.9,19.8,19.8v0.4c0,10.9-8.9,19.8-19.8,19.8l0,0
				c-10.9,0-19.8-8.9-19.8-19.8v-0.4C-2904,222.9-2895.2,214-2884.2,214z"/>
			<g>
				<g>
					<polygon class="st11" points="-2882.7,242.5 -2880.7,240.5 -2887.2,234 -2880.7,227.6 -2882.7,225.6 -2891.2,234 					"/>
				</g>
			</g>
		</g>
		<text transform="matrix(1 0 0 1 -2640.7092 -300.0228)" class="st13" style="font-family:'OpenSans-Semibold'; font-size:16px;">¡Resultados instantáneos!</text>
	</g>
	<g>
		<rect x="-2552.9" y="-117.3" class="st8" width="370.1" height="256"/>
		<g>
			<rect x="-2542.3" y="-102.8" class="st12" width="350" height="40"/>
			<text transform="matrix(1 0 0 1 -2527.2634 -76.4162)" class="st13" style="font-family:'OpenSans'; font-size:16px;">Marca del auto</text>
			<g>
				<g>
					<polygon class="st13" points="-2203,-83.9 -2205,-85.9 -2211.4,-79.4 -2217.9,-85.9 -2219.9,-83.9 -2211.4,-75.4 					"/>
				</g>
			</g>
		</g>
		<g>
			<rect x="-2542.3" y="-22.8" class="st12" width="350" height="40"/>
			<text transform="matrix(1 0 0 1 -2526.8333 3.5838)" class="st13" style="font-family:'OpenSans'; font-size:16px;">Email</text>
		</g>
		<g>
			<rect x="-2542.3" y="16.5" class="st12" width="350" height="40"/>
			<text transform="matrix(1 0 0 1 -2526.8333 42.9043)" class="st13" style="font-family:'OpenSans'; font-size:16px;">Teléfono celular</text>
		</g>
		<g>
			<rect x="-2542.3" y="-62.8" class="st12" width="240" height="40"/>
			<text transform="matrix(1 0 0 1 -2527.4043 -36.4162)" class="st13" style="font-family:'OpenSans'; font-size:16px;">Modelo del auto</text>
			<g>
				<g>
					<polygon class="st13" points="-2315.3,-43.9 -2317.3,-45.9 -2323.8,-39.4 -2330.3,-45.9 -2332.3,-43.9 -2323.8,-35.4 					"/>
				</g>
			</g>
		</g>
		<g>
			<rect x="-2302.3" y="-62.8" class="st12" width="110" height="40"/>
			<text transform="matrix(1 0 0 1 -2281.6543 -36.4162)" class="st13" style="font-family:'OpenSans'; font-size:16px;">año</text>
			<g>
				<g>
					<polygon class="st13" points="-2202.9,-43.9 -2204.9,-45.9 -2211.4,-39.4 -2217.8,-45.9 -2219.8,-43.9 -2211.4,-35.4 					"/>
				</g>
			</g>
		</g>
		<rect x="-2552.5" y="-121.3" class="st7" width="369.7" height="4"/>
		<g>
			<path class="st14" d="M-2196.3,113.7h-342c-2.2,0-4-1.8-4-4v-36c0-2.2,1.8-4,4-4h342c2.2,0,4,1.8,4,4v36
				C-2192.3,111.9-2194.1,113.7-2196.3,113.7z"/>
			<path class="st15" d="M-2196.3,110.2h-342c-2.2,0-4-1.8-4-4v-36c0-2.2,1.8-4,4-4h342c2.2,0,4,1.8,4,4v36
				C-2192.3,108.4-2194.1,110.2-2196.3,110.2z"/>
			<text transform="matrix(1 0 0 1 -2425.8591 94.0605)" class="st6" style="font-family:'OpenSans-Semibold'; font-size:18px;">Cotizar ahora</text>
		</g>
	</g>
	
		<image style="overflow:visible;" width="1920" height="1080" xlink:href="7F9CF08614C28423.jpg"  transform="matrix(0.2499 0 0 0.2499 -4392.4893 -240.7748)">
	</image>
	<rect x="-4338.2" y="3" class="st8" width="370.1" height="256"/>
	<rect x="-4392.4" y="-442.8" class="st9" width="479.8" height="48"/>
	<g>
		<path class="st6" d="M-4220.4-418.9h-4.5l-2.4,4.8h1.8l0,0.4h-3.6l0-0.4h1.2l7.6-15h2.7l2.2,15h1.3l0,0.4h-6.9l0-0.4h1.2
			L-4220.4-418.9z M-4224.7-419.4h4.2l-0.8-6.7L-4224.7-419.4z"/>
		<path class="st6" d="M-4207.1-415.7c0-1.2-1-1.5-2.5-2.1c-1.3-0.5-2.6-1.2-2.6-3c0-2.4,2.3-3.6,5.4-3.6c1.8,0,4,0.3,4,2.2
			c0,1-0.7,1.7-1.8,1.7c-0.8,0-1.5-0.4-1.5-1.1c0-0.4,0.1-0.7,0.3-1h0.7c0.1-0.2,0.1-0.4,0.1-0.5c0-0.5-0.5-0.8-1.5-0.8
			c-1.7,0-2.3,0.7-2.3,1.5c0,1.1,0.8,1.4,2.2,2c1.5,0.6,3.1,1.1,3.1,3c0,2.7-2.5,4-5.8,4c-2.5,0-4.1-0.8-4.1-2.4
			c0-1.2,0.8-1.8,1.9-1.8c1,0,1.5,0.6,1.5,1.4c0,0.3-0.1,0.6-0.2,0.9h-0.9c-0.1,0.2-0.1,0.3-0.1,0.4c0,0.6,0.5,1.1,1.8,1.1
			C-4207.5-414-4207.1-415-4207.1-415.7z"/>
		<path class="st6" d="M-4191.8-422c0,2.2-2.4,2.8-4.4,3.1c-0.7,0.1-1.3,0.1-1.7,0.1c-0.3,3.1,0.3,4.5,1.9,4.5
			c1.1,0,2.3-0.8,3.1-3.2l0.4,0.1c-0.8,2.7-2.4,3.8-5.1,3.8c-2.8,0-4.5-1.5-4.5-4.1c0-4.5,2.7-6.9,6.7-6.9
			C-4193-424.5-4191.8-423.6-4191.8-422z M-4195.7-424c-1.2,0-1.9,2.2-2.2,4.9c1.5-0.1,2.9-0.8,2.9-3.5
			C-4195-423.5-4195.1-424-4195.7-424z"/>
		<path class="st6" d="M-4189.2-410.1c-0.2,0.9,0.2,1.4,1.2,1.4c1.7,0,2.6-1.2,3.6-5c0.1-0.6,0.2-0.9,0.4-1.6l-0.1,0
			c-0.6,1-1.5,1.9-3.4,1.9c-2.3,0-3.5-1.2-3.5-3.8c0-3.3,1.3-7.2,5.3-7.2c1.7,0,2.3,0.9,2.6,1.6l0.3-1.3c1,0,3.2,0,4-0.2
			c-0.5,2.3-0.8,3.4-1.6,9.2c-0.7,4.7-3.5,6.9-7.5,6.9c-1.9,0-3.9-0.8-3.9-2.6c0-1.4,1-2.2,2.1-2.2c1.1,0,2.1,0.6,1.8,2.5
			L-4189.2-410.1z M-4184.2-416.7c0.5-1.4,0.8-3.2,0.8-4.7c0-1.4-0.5-2.3-1.3-2.3c-0.8,0-1.3,0.8-1.7,2.3c-0.5,1.7-0.8,3.6-0.8,5.5
			c0,0.8,0.2,1.6,1,1.6C-4185.4-414.4-4184.8-415-4184.2-416.7z"/>
		<path class="st6" d="M-4175.9-423.8h-1.5l0.1-0.4h5.7c-1,4.1-1.5,6.6-1.7,8.2c-0.1,0.6-0.2,1.3,0.5,1.3c1,0,2.1-2.3,2.7-5.5
			c0.2-1.3,0.5-2.8,0.5-3.8c0.7,0,3.8-0.1,4.4-0.3c-0.6,2.7-1.3,6.5-1.6,8.5c-0.1,0.7-0.2,1.4,0.5,1.4c0.4,0,0.9-0.3,1.5-1.2
			l0.4,0.3c-0.9,1.4-1.9,1.8-3.2,1.8c-2.5,0-3.3-1.3-2.5-3.8l-0.1,0c-0.8,2.1-1.9,3.8-4.4,3.8c-2.1,0-2.8-1.5-2.4-3.4
			C-4176.9-418.7-4176.2-422.5-4175.9-423.8z"/>
		<path class="st6" d="M-4162.9-418.1l0.8-5.8h-1.5l0.1-0.4h5.5l-1,4.2l0.1,0c0.6-1.7,2.2-4.4,4.7-4.4c1,0,2.1,0.5,2.1,2
			c0,1.5-1,2.1-2.1,2.1c-0.5,0-1-0.1-1.5-0.4l-0.1-1.8c-1.2,0-2.4,1.7-2.9,4.1c-0.5,2-0.6,3.4-0.6,4.7c-0.9,0-3.3,0.1-4.4,0.3
			L-4162.9-418.1z"/>
		<path class="st6" d="M-4139.1-415.4c-0.8,1.3-1.7,1.9-3,1.9c-2.2,0-3-1.1-2.7-2.9l-0.1,0c-0.6,1.7-1.7,2.9-3.6,2.9
			c-2.6,0-3.6-1.5-3.6-3.8c0-4.1,1.9-7.1,5.4-7.1c1.6,0,2.1,0.6,2.5,1.5l0.3-1.2c1.1,0,3.2,0,4-0.2c-0.6,2.7-1.1,5.3-1.6,8.5
			c0,0.3-0.1,0.6-0.1,0.8c0,0.6,0.3,0.7,0.6,0.7c0.3,0,0.8-0.2,1.5-1.2L-4139.1-415.4z M-4145.1-416.9c0.5-1.5,0.8-3.4,0.8-5.2
			c0-1.3-0.6-1.8-1.2-1.8c-0.7,0-1.1,0.6-1.6,2.2c-0.5,1.7-0.9,4.1-0.9,5.7c0,0.8,0.1,1.6,1,1.6
			C-4146.4-414.4-4145.7-415.1-4145.1-416.9z"/>
		<path class="st6" d="M-4126.7-421.5c-0.4,2.1-0.7,3.9-1,5.6c0,0.3-0.1,0.6-0.1,0.8c0,0.6,0.3,0.7,0.6,0.7c0.3,0,0.8-0.2,1.5-1.2
			l0.3,0.2c-0.8,1.3-1.8,1.9-3,1.9c-2.2,0-3-1.1-2.7-2.9l-0.1,0c-0.6,1.7-1.7,2.9-3.6,2.9c-2.6,0-3.6-1.5-3.6-3.8
			c0-4.1,1.9-7.1,5.4-7.1c1.6,0,2.2,0.7,2.5,1.7l1.1-7.1h-1.4l0.1-0.4h5.6L-4126.7-421.5z M-4131.5-416.9c0.5-1.5,0.8-3.4,0.8-5.2
			c0-1.3-0.6-1.8-1.2-1.8c-0.7,0-1.1,0.6-1.6,2.2c-0.5,1.7-0.9,4.1-0.9,5.7c0,0.8,0.1,1.6,1,1.6
			C-4132.8-414.4-4132-415.1-4131.5-416.9z"/>
		<path class="st6" d="M-4124.7-417.7c0-4,2.3-6.8,6.5-6.8c2.9,0,4.5,1.2,4.5,4c0,4.6-2.6,7-6.5,7
			C-4123.2-413.5-4124.7-414.9-4124.7-417.7z M-4117.5-422.5c0-1-0.3-1.5-0.9-1.5c-1.4,0-1.7,1.7-2.3,5.2c-0.2,1.4-0.4,2.7-0.4,3.4
			c0,1,0.3,1.5,1,1.5c1.2,0,1.6-1.2,2.3-5.3C-4117.6-420.6-4117.5-421.7-4117.5-422.5z"/>
		<path class="st6" d="M-4106.8-415.7c0-1.2-1-1.5-2.5-2.1c-1.3-0.5-2.6-1.2-2.6-3c0-2.4,2.3-3.6,5.4-3.6c1.8,0,4,0.3,4,2.2
			c0,1-0.7,1.7-1.8,1.7c-0.8,0-1.5-0.4-1.5-1.1c0-0.4,0.1-0.7,0.3-1h0.7c0.1-0.2,0.1-0.4,0.1-0.5c0-0.5-0.5-0.8-1.5-0.8
			c-1.7,0-2.3,0.7-2.3,1.5c0,1.1,0.8,1.4,2.2,2c1.5,0.6,3.1,1.1,3.1,3c0,2.7-2.5,4-5.8,4c-2.5,0-4.1-0.8-4.1-2.4
			c0-1.2,0.8-1.8,1.9-1.8c1,0,1.5,0.6,1.5,1.4c0,0.3-0.1,0.6-0.2,0.9h-0.9c-0.1,0.2-0.1,0.3-0.1,0.4c0,0.6,0.5,1.1,1.8,1.1
			C-4107.2-414-4106.8-415-4106.8-415.7z"/>
		<path class="st16" d="M-4097.4-415.8c0,1.4-0.9,2.3-2.3,2.3c-1.3,0-1.7-0.9-1.7-1.6c0-1.3,1.1-2.2,2.2-2.2
			C-4098.1-417.3-4097.4-416.8-4097.4-415.8z"/>
		<path class="st16" d="M-4091-415.4c-0.2,0.8-0.7,1.8-2.2,1.8c-1.4,0-2.2-0.7-2.2-2c0-1.9,1.2-3.1,3.2-3.1c1.1,0,1.6,0.6,1.6,1.2
			c0,0.6-0.3,1.1-1,1.1c-0.6,0-0.7-0.3-0.7-0.6c0-0.2,0.1-0.4,0.2-0.5h0.4c0.1-0.2,0.1-0.3,0.1-0.5c0-0.3-0.2-0.4-0.4-0.4
			c-0.7,0-1,0.8-1.2,1.7c-0.1,0.5-0.2,1.1-0.2,1.6c0,0.8,0.3,1.2,0.8,1.2c0.5,0,1.1-0.4,1.4-1.5L-4091-415.4z"/>
		<path class="st16" d="M-4090.4-415.5c0-1.8,1-3.1,3-3.1c1.4,0,2.1,0.6,2.1,1.8c0,2.1-1.2,3.2-3,3.2
			C-4089.7-413.6-4090.4-414.3-4090.4-415.5z M-4087-417.8c0-0.5-0.1-0.7-0.4-0.7c-0.6,0-0.8,0.8-1.1,2.4c-0.1,0.7-0.2,1.2-0.2,1.6
			c0,0.5,0.1,0.7,0.5,0.7c0.6,0,0.7-0.6,1-2.4C-4087.1-416.9-4087-417.4-4087-417.8z"/>
		<path class="st16" d="M-4081.1-417.2c0.2-0.7,0.2-0.9-0.1-0.9c-0.2,0-0.6,0.2-0.9,1.1c-0.4,0.8-0.6,1.7-0.7,3.3
			c-0.3,0-1.7,0-2,0.1l0.4-1.9l0.4-2.8h-0.7l0-0.2h2.6l-0.4,1.7l0,0c0.5-1,0.9-1.8,2.1-1.8c0.7,0,0.9,0.3,0.9,0.8
			c0,0.2-0.1,0.5-0.2,0.8l0,0c0.3-0.6,0.8-1.6,2-1.6c0.7,0,1.1,0.4,1.1,1c0,0.3-0.1,0.6-0.1,0.9l-0.5,1.9c-0.1,0.3-0.1,0.5-0.1,0.6
			c0,0.2,0.1,0.2,0.3,0.2c0.2,0,0.4-0.2,0.6-0.6l0.2,0.1c-0.4,0.6-0.8,0.9-1.5,0.9c-0.8,0-1.3-0.3-1.3-1.2c0-0.7,0.5-2.2,0.6-2.4
			c0.2-0.5,0.3-0.9,0-0.9c-0.2,0-0.5,0.3-0.8,0.9c-0.4,0.8-0.7,2-0.8,3.5c-0.3,0-1.7,0-1.9,0.1
			C-4081.7-414.9-4081.4-416-4081.1-417.2z"/>
	</g>
	<g>
		
			<rect x="-4377.9" y="-422.3" transform="matrix(0.7071 0.7071 -0.7071 0.7071 -1575.333 2962.6431)" class="st6" width="28" height="4"/>
		
			<rect x="-4377.9" y="-422.3" transform="matrix(-0.7071 0.7071 -0.7071 -0.7071 -7746.8101 2368.2866)" class="st6" width="28" height="4"/>
	</g>
	<rect x="-4298.1" y="-367.1" style="fill:none;" width="290.9" height="70"/>
	<text transform="matrix(1 0 0 1 -4293.3652 -339.7306)"><tspan x="0" y="0" class="st7" style="font-family:'OpenSans-Semibold'; font-size:36px;">Cotiza tu seguro </tspan><tspan x="44.1" y="36" class="st7" style="font-family:'OpenSans-Semibold'; font-size:36px;">automotriz</tspan></text>
	<g>
		<rect x="-4327.6" y="17.5" class="st12" width="350" height="40"/>
		<text transform="matrix(1 0 0 1 -4312.5698 43.894)" class="st13" style="font-family:'OpenSans'; font-size:16px;">Marca del auto</text>
		<g>
			<g>
				<polygon class="st13" points="-3988.3,36.4 -3990.3,34.4 -3996.7,40.9 -4003.2,34.4 -4005.2,36.4 -3996.7,44.9 				"/>
			</g>
		</g>
	</g>
	<g>
		<rect x="-4327.6" y="97.5" class="st12" width="350" height="40"/>
		<text transform="matrix(1 0 0 1 -4312.1396 123.894)" class="st13" style="font-family:'OpenSans'; font-size:16px;">Email</text>
	</g>
	<g>
		<rect x="-4327.6" y="136.8" class="st12" width="350" height="40"/>
		<text transform="matrix(1 0 0 1 -4312.1396 163.2145)" class="st13" style="font-family:'OpenSans'; font-size:16px;">Teléfono celular</text>
	</g>
	<g>
		<rect x="-4327.6" y="57.5" class="st12" width="240" height="40"/>
		<text transform="matrix(1 0 0 1 -4312.7109 83.894)" class="st13" style="font-family:'OpenSans'; font-size:16px;">Modelo del auto</text>
		<g>
			<g>
				<polygon class="st13" points="-4100.6,76.4 -4102.6,74.4 -4109.1,80.9 -4115.6,74.4 -4117.6,76.4 -4109.1,84.9 				"/>
			</g>
		</g>
	</g>
	<g>
		<rect x="-4087.6" y="57.5" class="st12" width="110" height="40"/>
		<text transform="matrix(1 0 0 1 -4066.9609 83.894)" class="st13" style="font-family:'OpenSans'; font-size:16px;">año</text>
		<g>
			<g>
				<polygon class="st13" points="-3988.2,76.4 -3990.2,74.4 -3996.7,80.9 -4003.1,74.4 -4005.1,76.4 -3996.7,84.9 				"/>
			</g>
		</g>
	</g>
	<rect x="-4337.8" y="-1" class="st7" width="369.7" height="4"/>
	<g>
		<path class="st14" d="M-3981.6,234h-342c-2.2,0-4-1.8-4-4v-36c0-2.2,1.8-4,4-4h342c2.2,0,4,1.8,4,4v36
			C-3977.6,232.3-3979.4,234-3981.6,234z"/>
		<path class="st15" d="M-3981.6,230.5h-342c-2.2,0-4-1.8-4-4v-36c0-2.2,1.8-4,4-4h342c2.2,0,4,1.8,4,4v36
			C-3977.6,228.8-3979.4,230.5-3981.6,230.5z"/>
		<text transform="matrix(1 0 0 1 -4211.1655 214.3707)" class="st6" style="font-family:'OpenSans-Semibold'; font-size:18px;">Cotizar ahora</text>
	</g>
	<g>
		<rect x="-3967.9" y="-226.6" class="st6" width="40" height="16"/>
		<text transform="matrix(1 0 0 1 -3960.1592 -214.7745)" style="font-family:'OpenSans-Semibold'; font-size:12px;">1 / 2</text>
	</g>
	<rect x="-4392.6" y="310.6" class="st17" width="480" height="128.7"/>
	<rect x="-4392.6" y="439.3" width="480" height="23.8"/>
	<text transform="matrix(1 0 0 1 -4196.0874 455.3848)" class="st6" style="font-family:'OpenSans-Semibold'; font-size:12px;">Copyright 2020</text>
	<g>
		<rect x="-4352.8" y="333.6" style="fill:none;" width="154.4" height="93.8"/>
		<text transform="matrix(1 0 0 1 -4351.7739 342.7171)"><tspan x="0" y="0" class="st6" style="font-family:'OpenSans-Semibold'; font-size:12px;">Acerca de nosotros</tspan><tspan x="0" y="28.8" class="st6" style="font-family:'OpenSans-Semibold'; font-size:12px;">Descarga tu poliza</tspan><tspan x="0" y="57.6" class="st6" style="font-family:'OpenSans-Semibold'; font-size:12px;">Términos y condiciones</tspan></text>
		<circle class="st6" cx="-4364.3" cy="338.9" r="3.3"/>
		<circle class="st6" cx="-4364.3" cy="367.4" r="3.3"/>
		<circle class="st6" cx="-4364.3" cy="395.9" r="3.3"/>
	</g>
	<path class="st6" d="M-4057,367.4c0-6.6-5.3-11.9-11.9-11.9c-6.6,0-11.9,5.3-11.9,11.9c0,6.6,5.3,11.9,11.9,11.9c0.1,0,0.1,0,0.2,0
		V370h-2.6v-3h2.6v-2.2c0-2.5,1.5-3.9,3.8-3.9c1.1,0,2,0.1,2.3,0.1v2.7h-1.6c-1.2,0-1.5,0.6-1.5,1.4v1.9h2.9l-0.4,3h-2.6v8.8
		C-4060.6,377.4-4057,372.8-4057,367.4z"/>
	<g>
		<path class="st6" d="M-3997.7,367.4c0,1.3-1,2.3-2.3,2.3s-2.3-1-2.3-2.3c0-1.3,1-2.3,2.3-2.3S-3997.7,366.1-3997.7,367.4z"/>
		<path class="st6" d="M-3994.7,363.3c-0.1-0.3-0.3-0.6-0.5-0.8c-0.2-0.2-0.5-0.4-0.8-0.5c-0.2-0.1-0.6-0.2-1.3-0.2
			c-0.7,0-0.9,0-2.8,0c-1.8,0-2,0-2.8,0c-0.7,0-1,0.1-1.3,0.2c-0.3,0.1-0.6,0.3-0.8,0.5c-0.2,0.2-0.4,0.5-0.5,0.8
			c-0.1,0.2-0.2,0.6-0.2,1.3c0,0.7,0,0.9,0,2.8c0,1.8,0,2,0,2.8c0,0.7,0.1,1,0.2,1.3c0.1,0.3,0.3,0.6,0.5,0.8
			c0.2,0.2,0.5,0.4,0.8,0.5c0.2,0.1,0.6,0.2,1.3,0.2c0.7,0,0.9,0,2.8,0c1.8,0,2,0,2.8,0c0.7,0,1-0.1,1.3-0.2
			c0.6-0.2,1.1-0.7,1.3-1.3c0.1-0.2,0.2-0.6,0.2-1.3c0-0.7,0-0.9,0-2.8c0-1.8,0-2,0-2.8C-3994.5,363.9-3994.6,363.6-3994.7,363.3z
			 M-4000,370.9c-1.9,0-3.5-1.6-3.5-3.5c0-1.9,1.6-3.5,3.5-3.5c1.9,0,3.5,1.6,3.5,3.5C-3996.5,369.3-3998.1,370.9-4000,370.9z
			 M-3996.4,364.5c-0.5,0-0.8-0.4-0.8-0.8s0.4-0.8,0.8-0.8s0.8,0.4,0.8,0.8C-3995.6,364.2-3995.9,364.5-3996.4,364.5z"/>
		<path class="st6" d="M-4000,355.5c-6.6,0-11.9,5.3-11.9,11.9c0,6.6,5.3,11.9,11.9,11.9c6.6,0,11.9-5.3,11.9-11.9
			C-3988.1,360.8-3993.5,355.5-4000,355.5z M-3993.2,370.2c0,0.7-0.1,1.2-0.3,1.7c-0.4,0.9-1.1,1.6-2,2c-0.4,0.2-0.9,0.3-1.7,0.3
			c-0.7,0-1,0-2.8,0c-1.9,0-2.1,0-2.8,0c-0.7,0-1.2-0.1-1.7-0.3c-0.5-0.2-0.9-0.4-1.2-0.8c-0.3-0.3-0.6-0.8-0.8-1.2
			c-0.2-0.4-0.3-0.9-0.3-1.7c0-0.7,0-1,0-2.8s0-2.1,0-2.8c0-0.7,0.1-1.2,0.3-1.7c0.2-0.5,0.4-0.9,0.8-1.2c0.3-0.3,0.8-0.6,1.2-0.8
			c0.4-0.2,0.9-0.3,1.7-0.3c0.7,0,1,0,2.8,0s2.1,0,2.8,0c0.7,0,1.2,0.1,1.7,0.3c0.5,0.2,0.9,0.4,1.2,0.8c0.3,0.3,0.6,0.8,0.8,1.2
			c0.2,0.4,0.3,0.9,0.3,1.7c0,0.7,0,1,0,2.8S-3993.2,369.4-3993.2,370.2z"/>
	</g>
	<g>
		<path class="st6" d="M-4035.9,369.6l3.9-2.2l-3.9-2.2V369.6z"/>
		<path class="st6" d="M-4034.4,355.5c-6.6,0-11.9,5.3-11.9,11.9c0,6.6,5.3,11.9,11.9,11.9c6.6,0,11.9-5.3,11.9-11.9
			C-4022.6,360.8-4027.9,355.5-4034.4,355.5z M-4027,367.4c0,0,0,2.4-0.3,3.6c-0.2,0.6-0.7,1.1-1.3,1.3c-1.2,0.3-5.8,0.3-5.8,0.3
			s-4.6,0-5.8-0.3c-0.6-0.2-1.1-0.7-1.3-1.3c-0.3-1.1-0.3-3.6-0.3-3.6s0-2.4,0.3-3.6c0.2-0.6,0.7-1.1,1.3-1.3
			c1.2-0.3,5.8-0.3,5.8-0.3s4.6,0,5.8,0.3c0.6,0.2,1.1,0.7,1.3,1.3C-4027,364.9-4027,367.4-4027,367.4z"/>
	</g>
	<text transform="matrix(1 0 0 1 -4134.9263 342.2934)" class="st6" style="font-family:'OpenSans-Semibold'; font-size:12px;">Síguenos en nuestras redes sociales</text>
	<text transform="matrix(1 0 0 1 -4251.9321 -276.0959)" class="st13" style="font-family:'OpenSans-Semibold'; font-size:16px;">¡Resultados instantáneos!</text>
	
		<image style="overflow:visible;" width="1920" height="1080" xlink:href="7F9CF08614C2842C.jpg"  transform="matrix(0.2499 0 0 0.2499 -3796.9082 -240.7748)">
	</image>
	<rect x="-3796.8" y="-442.8" class="st9" width="479.8" height="48"/>
	<g>
		<path class="st6" d="M-3624.8-418.9h-4.5l-2.4,4.8h1.8l0,0.4h-3.6l0-0.4h1.2l7.6-15h2.7l2.2,15h1.3l0,0.4h-6.9l0-0.4h1.2
			L-3624.8-418.9z M-3629.1-419.4h4.2l-0.8-6.7L-3629.1-419.4z"/>
		<path class="st6" d="M-3611.5-415.7c0-1.2-1-1.5-2.5-2.1c-1.3-0.5-2.6-1.2-2.6-3c0-2.4,2.3-3.6,5.4-3.6c1.8,0,4,0.3,4,2.2
			c0,1-0.7,1.7-1.8,1.7c-0.8,0-1.5-0.4-1.5-1.1c0-0.4,0.1-0.7,0.3-1h0.7c0.1-0.2,0.1-0.4,0.1-0.5c0-0.5-0.5-0.8-1.5-0.8
			c-1.7,0-2.3,0.7-2.3,1.5c0,1.1,0.8,1.4,2.2,2c1.5,0.6,3.1,1.1,3.1,3c0,2.7-2.5,4-5.8,4c-2.5,0-4.1-0.8-4.1-2.4
			c0-1.2,0.8-1.8,1.9-1.8c1,0,1.5,0.6,1.5,1.4c0,0.3-0.1,0.6-0.2,0.9h-0.9c-0.1,0.2-0.1,0.3-0.1,0.4c0,0.6,0.5,1.1,1.8,1.1
			C-3611.9-414-3611.5-415-3611.5-415.7z"/>
		<path class="st6" d="M-3596.2-422c0,2.2-2.4,2.8-4.4,3.1c-0.7,0.1-1.3,0.1-1.7,0.1c-0.3,3.1,0.3,4.5,1.9,4.5
			c1.1,0,2.3-0.8,3.1-3.2l0.4,0.1c-0.8,2.7-2.4,3.8-5.1,3.8c-2.8,0-4.5-1.5-4.5-4.1c0-4.5,2.7-6.9,6.7-6.9
			C-3597.4-424.5-3596.2-423.6-3596.2-422z M-3600.1-424c-1.2,0-1.9,2.2-2.2,4.9c1.5-0.1,2.9-0.8,2.9-3.5
			C-3599.4-423.5-3599.6-424-3600.1-424z"/>
		<path class="st6" d="M-3593.6-410.1c-0.2,0.9,0.2,1.4,1.2,1.4c1.7,0,2.6-1.2,3.6-5c0.1-0.6,0.2-0.9,0.4-1.6l-0.1,0
			c-0.6,1-1.5,1.9-3.4,1.9c-2.3,0-3.5-1.2-3.5-3.8c0-3.3,1.3-7.2,5.3-7.2c1.7,0,2.3,0.9,2.6,1.6l0.3-1.3c1,0,3.2,0,4-0.2
			c-0.5,2.3-0.8,3.4-1.6,9.2c-0.7,4.7-3.5,6.9-7.5,6.9c-1.9,0-3.9-0.8-3.9-2.6c0-1.4,1-2.2,2.1-2.2c1.1,0,2.1,0.6,1.8,2.5
			L-3593.6-410.1z M-3588.6-416.7c0.5-1.4,0.8-3.2,0.8-4.7c0-1.4-0.5-2.3-1.3-2.3c-0.8,0-1.3,0.8-1.7,2.3c-0.5,1.7-0.8,3.6-0.8,5.5
			c0,0.8,0.2,1.6,1,1.6C-3589.9-414.4-3589.2-415-3588.6-416.7z"/>
		<path class="st6" d="M-3580.3-423.8h-1.5l0.1-0.4h5.7c-1,4.1-1.5,6.6-1.7,8.2c-0.1,0.6-0.2,1.3,0.5,1.3c1,0,2.1-2.3,2.7-5.5
			c0.2-1.3,0.5-2.8,0.5-3.8c0.7,0,3.8-0.1,4.4-0.3c-0.6,2.7-1.3,6.5-1.6,8.5c-0.1,0.7-0.2,1.4,0.5,1.4c0.4,0,0.9-0.3,1.5-1.2
			l0.4,0.3c-0.9,1.4-1.9,1.8-3.2,1.8c-2.5,0-3.3-1.3-2.5-3.8l-0.1,0c-0.8,2.1-1.9,3.8-4.4,3.8c-2.1,0-2.8-1.5-2.4-3.4
			C-3581.3-418.7-3580.6-422.5-3580.3-423.8z"/>
		<path class="st6" d="M-3567.3-418.1l0.8-5.8h-1.5l0.1-0.4h5.5l-1,4.2l0.1,0c0.6-1.7,2.2-4.4,4.7-4.4c1,0,2.1,0.5,2.1,2
			c0,1.5-1,2.1-2.1,2.1c-0.5,0-1-0.1-1.5-0.4l-0.1-1.8c-1.2,0-2.4,1.7-2.9,4.1c-0.5,2-0.6,3.4-0.6,4.7c-0.9,0-3.3,0.1-4.4,0.3
			L-3567.3-418.1z"/>
		<path class="st6" d="M-3543.5-415.4c-0.8,1.3-1.7,1.9-3,1.9c-2.2,0-3-1.1-2.7-2.9l-0.1,0c-0.6,1.7-1.7,2.9-3.6,2.9
			c-2.6,0-3.6-1.5-3.6-3.8c0-4.1,1.9-7.1,5.4-7.1c1.6,0,2.1,0.6,2.5,1.5l0.3-1.2c1.1,0,3.2,0,4-0.2c-0.6,2.7-1.1,5.3-1.6,8.5
			c0,0.3-0.1,0.6-0.1,0.8c0,0.6,0.3,0.7,0.6,0.7c0.3,0,0.8-0.2,1.5-1.2L-3543.5-415.4z M-3549.5-416.9c0.5-1.5,0.8-3.4,0.8-5.2
			c0-1.3-0.6-1.8-1.2-1.8c-0.7,0-1.1,0.6-1.6,2.2c-0.5,1.7-0.9,4.1-0.9,5.7c0,0.8,0.1,1.6,1,1.6
			C-3550.8-414.4-3550.1-415.1-3549.5-416.9z"/>
		<path class="st6" d="M-3531.1-421.5c-0.4,2.1-0.7,3.9-1,5.6c0,0.3-0.1,0.6-0.1,0.8c0,0.6,0.3,0.7,0.6,0.7c0.3,0,0.8-0.2,1.5-1.2
			l0.3,0.2c-0.8,1.3-1.8,1.9-3,1.9c-2.2,0-3-1.1-2.7-2.9l-0.1,0c-0.6,1.7-1.7,2.9-3.6,2.9c-2.6,0-3.6-1.5-3.6-3.8
			c0-4.1,1.9-7.1,5.4-7.1c1.6,0,2.2,0.7,2.5,1.7l1.1-7.1h-1.4l0.1-0.4h5.6L-3531.1-421.5z M-3535.9-416.9c0.5-1.5,0.8-3.4,0.8-5.2
			c0-1.3-0.6-1.8-1.2-1.8c-0.7,0-1.1,0.6-1.6,2.2c-0.5,1.7-0.9,4.1-0.9,5.7c0,0.8,0.1,1.6,1,1.6
			C-3537.2-414.4-3536.5-415.1-3535.9-416.9z"/>
		<path class="st6" d="M-3529.2-417.7c0-4,2.3-6.8,6.5-6.8c2.9,0,4.5,1.2,4.5,4c0,4.6-2.6,7-6.5,7
			C-3527.7-413.5-3529.2-414.9-3529.2-417.7z M-3521.9-422.5c0-1-0.3-1.5-0.9-1.5c-1.4,0-1.7,1.7-2.3,5.2c-0.2,1.4-0.4,2.7-0.4,3.4
			c0,1,0.3,1.5,1,1.5c1.2,0,1.6-1.2,2.3-5.3C-3522-420.6-3521.9-421.7-3521.9-422.5z"/>
		<path class="st6" d="M-3511.2-415.7c0-1.2-1-1.5-2.5-2.1c-1.3-0.5-2.6-1.2-2.6-3c0-2.4,2.3-3.6,5.4-3.6c1.8,0,4,0.3,4,2.2
			c0,1-0.7,1.7-1.8,1.7c-0.8,0-1.5-0.4-1.5-1.1c0-0.4,0.1-0.7,0.3-1h0.7c0.1-0.2,0.1-0.4,0.1-0.5c0-0.5-0.5-0.8-1.5-0.8
			c-1.7,0-2.3,0.7-2.3,1.5c0,1.1,0.8,1.4,2.2,2c1.5,0.6,3.1,1.1,3.1,3c0,2.7-2.5,4-5.8,4c-2.5,0-4.1-0.8-4.1-2.4
			c0-1.2,0.8-1.8,1.9-1.8c1,0,1.5,0.6,1.5,1.4c0,0.3-0.1,0.6-0.2,0.9h-0.9c-0.1,0.2-0.1,0.3-0.1,0.4c0,0.6,0.5,1.1,1.8,1.1
			C-3511.6-414-3511.2-415-3511.2-415.7z"/>
		<path class="st16" d="M-3501.9-415.8c0,1.4-0.9,2.3-2.3,2.3c-1.3,0-1.7-0.9-1.7-1.6c0-1.3,1.1-2.2,2.2-2.2
			C-3502.5-417.3-3501.9-416.8-3501.9-415.8z"/>
		<path class="st16" d="M-3495.4-415.4c-0.2,0.8-0.7,1.8-2.2,1.8c-1.4,0-2.2-0.7-2.2-2c0-1.9,1.2-3.1,3.2-3.1c1.1,0,1.6,0.6,1.6,1.2
			c0,0.6-0.3,1.1-1,1.1c-0.6,0-0.7-0.3-0.7-0.6c0-0.2,0.1-0.4,0.2-0.5h0.4c0.1-0.2,0.1-0.3,0.1-0.5c0-0.3-0.2-0.4-0.4-0.4
			c-0.7,0-1,0.8-1.2,1.7c-0.1,0.5-0.2,1.1-0.2,1.6c0,0.8,0.3,1.2,0.8,1.2c0.5,0,1.1-0.4,1.4-1.5L-3495.4-415.4z"/>
		<path class="st16" d="M-3494.8-415.5c0-1.8,1-3.1,3-3.1c1.4,0,2.1,0.6,2.1,1.8c0,2.1-1.2,3.2-3,3.2
			C-3494.1-413.6-3494.8-414.3-3494.8-415.5z M-3491.4-417.8c0-0.5-0.1-0.7-0.4-0.7c-0.6,0-0.8,0.8-1.1,2.4
			c-0.1,0.7-0.2,1.2-0.2,1.6c0,0.5,0.1,0.7,0.5,0.7c0.6,0,0.7-0.6,1-2.4C-3491.5-416.9-3491.4-417.4-3491.4-417.8z"/>
		<path class="st16" d="M-3485.5-417.2c0.2-0.7,0.2-0.9-0.1-0.9c-0.2,0-0.6,0.2-0.9,1.1c-0.4,0.8-0.6,1.7-0.7,3.3
			c-0.3,0-1.7,0-2,0.1l0.4-1.9l0.4-2.8h-0.7l0-0.2h2.6l-0.4,1.7l0,0c0.5-1,0.9-1.8,2.1-1.8c0.7,0,0.9,0.3,0.9,0.8
			c0,0.2-0.1,0.5-0.2,0.8l0,0c0.3-0.6,0.8-1.6,2-1.6c0.7,0,1.1,0.4,1.1,1c0,0.3-0.1,0.6-0.1,0.9l-0.5,1.9c-0.1,0.3-0.1,0.5-0.1,0.6
			c0,0.2,0.1,0.2,0.3,0.2c0.2,0,0.4-0.2,0.6-0.6l0.2,0.1c-0.4,0.6-0.8,0.9-1.5,0.9c-0.8,0-1.3-0.3-1.3-1.2c0-0.7,0.5-2.2,0.6-2.4
			c0.2-0.5,0.3-0.9,0-0.9c-0.2,0-0.5,0.3-0.8,0.9c-0.4,0.8-0.7,2-0.8,3.5c-0.3,0-1.7,0-1.9,0.1
			C-3486.2-414.9-3485.9-416-3485.5-417.2z"/>
	</g>
	<g>
		<rect x="-3782.3" y="-430.8" class="st6" width="28" height="4"/>
		<rect x="-3782.3" y="-422.3" class="st6" width="28" height="4"/>
		<rect x="-3782.3" y="-413.8" class="st6" width="28" height="4"/>
	</g>
	<rect x="-1901.6" y="-442.8" class="st9" width="1462.8" height="80"/>
	<g>
		<path class="st6" d="M-2609.8-417.4h-4.5l-2.4,4.8h1.8l0,0.4h-3.6l0-0.4h1.2l7.6-15h2.7l2.2,15h1.3l0,0.4h-6.9l0-0.4h1.2
			L-2609.8-417.4z M-2614.1-417.9h4.2l-0.8-6.7L-2614.1-417.9z"/>
		<path class="st6" d="M-2596.5-414.3c0-1.2-1-1.5-2.5-2.1c-1.3-0.5-2.6-1.2-2.6-3c0-2.4,2.3-3.6,5.4-3.6c1.8,0,4,0.3,4,2.2
			c0,1-0.7,1.7-1.8,1.7c-0.8,0-1.5-0.4-1.5-1.1c0-0.4,0.1-0.7,0.3-1h0.7c0.1-0.2,0.1-0.4,0.1-0.5c0-0.5-0.5-0.8-1.5-0.8
			c-1.7,0-2.3,0.7-2.3,1.5c0,1.1,0.8,1.4,2.2,2c1.5,0.6,3.1,1.1,3.1,3c0,2.7-2.5,4-5.8,4c-2.5,0-4.1-0.8-4.1-2.4
			c0-1.2,0.8-1.8,1.9-1.8c1,0,1.5,0.6,1.5,1.4c0,0.3-0.1,0.6-0.2,0.9h-0.9c-0.1,0.2-0.1,0.3-0.1,0.4c0,0.6,0.5,1.1,1.8,1.1
			C-2596.9-412.5-2596.5-413.5-2596.5-414.3z"/>
		<path class="st6" d="M-2581.2-420.5c0,2.2-2.4,2.8-4.4,3.1c-0.7,0.1-1.3,0.1-1.7,0.1c-0.3,3.1,0.3,4.5,1.9,4.5
			c1.1,0,2.3-0.8,3.1-3.2l0.4,0.1c-0.8,2.7-2.4,3.8-5.1,3.8c-2.8,0-4.5-1.5-4.5-4.1c0-4.5,2.7-6.9,6.7-6.9
			C-2582.4-423-2581.2-422.1-2581.2-420.5z M-2585.1-422.6c-1.2,0-1.9,2.2-2.2,4.9c1.5-0.1,2.9-0.8,2.9-3.5
			C-2584.4-422-2584.6-422.6-2585.1-422.6z"/>
		<path class="st6" d="M-2578.6-408.6c-0.2,0.9,0.2,1.4,1.2,1.4c1.7,0,2.6-1.2,3.6-5c0.1-0.6,0.2-0.9,0.4-1.6l-0.1,0
			c-0.6,1-1.5,1.9-3.4,1.9c-2.3,0-3.5-1.2-3.5-3.8c0-3.3,1.3-7.2,5.3-7.2c1.7,0,2.3,0.9,2.6,1.6l0.3-1.3c1,0,3.2,0,4-0.2
			c-0.5,2.3-0.8,3.4-1.6,9.2c-0.7,4.7-3.5,6.9-7.5,6.9c-1.9,0-3.9-0.8-3.9-2.6c0-1.4,1-2.2,2.1-2.2c1.1,0,2.1,0.6,1.8,2.5
			L-2578.6-408.6z M-2573.6-415.2c0.5-1.4,0.8-3.2,0.8-4.7c0-1.4-0.5-2.3-1.3-2.3c-0.8,0-1.3,0.8-1.7,2.3c-0.5,1.7-0.8,3.6-0.8,5.5
			c0,0.8,0.2,1.6,1,1.6C-2574.9-412.9-2574.2-413.6-2573.6-415.2z"/>
		<path class="st6" d="M-2565.3-422.4h-1.5l0.1-0.4h5.7c-1,4.1-1.5,6.6-1.7,8.2c-0.1,0.6-0.2,1.3,0.5,1.3c1,0,2.1-2.3,2.7-5.5
			c0.2-1.3,0.5-2.8,0.5-3.8c0.7,0,3.8-0.1,4.4-0.3c-0.6,2.7-1.3,6.5-1.6,8.5c-0.1,0.7-0.2,1.4,0.5,1.4c0.4,0,0.9-0.3,1.5-1.2
			l0.4,0.3c-0.9,1.4-1.9,1.8-3.2,1.8c-2.5,0-3.3-1.3-2.5-3.8l-0.1,0c-0.8,2.1-1.9,3.8-4.4,3.8c-2.1,0-2.8-1.5-2.4-3.4
			C-2566.3-417.3-2565.6-421-2565.3-422.4z"/>
		<path class="st6" d="M-2552.3-416.6l0.8-5.8h-1.5l0.1-0.4h5.5l-1,4.2l0.1,0c0.6-1.7,2.2-4.4,4.7-4.4c1,0,2.1,0.5,2.1,2
			c0,1.5-1,2.1-2.1,2.1c-0.5,0-1-0.1-1.5-0.4l-0.1-1.8c-1.2,0-2.4,1.7-2.9,4.1c-0.5,2-0.6,3.4-0.6,4.7c-0.9,0-3.3,0.1-4.4,0.3
			L-2552.3-416.6z"/>
		<path class="st6" d="M-2528.5-413.9c-0.8,1.3-1.7,1.9-3,1.9c-2.2,0-3-1.1-2.7-2.9l-0.1,0c-0.6,1.7-1.7,2.9-3.6,2.9
			c-2.6,0-3.6-1.5-3.6-3.8c0-4.1,1.9-7.1,5.4-7.1c1.6,0,2.1,0.6,2.5,1.5l0.3-1.2c1.1,0,3.2,0,4-0.2c-0.6,2.7-1.1,5.3-1.6,8.5
			c0,0.3-0.1,0.6-0.1,0.8c0,0.6,0.3,0.7,0.6,0.7c0.3,0,0.8-0.2,1.5-1.2L-2528.5-413.9z M-2534.5-415.4c0.5-1.5,0.8-3.4,0.8-5.2
			c0-1.3-0.6-1.8-1.2-1.8c-0.7,0-1.1,0.6-1.6,2.2c-0.5,1.7-0.9,4.1-0.9,5.7c0,0.8,0.1,1.6,1,1.6
			C-2535.8-412.9-2535.1-413.7-2534.5-415.4z"/>
		<path class="st6" d="M-2516.1-420c-0.4,2.1-0.7,3.9-1,5.6c0,0.3-0.1,0.6-0.1,0.8c0,0.6,0.3,0.7,0.6,0.7c0.3,0,0.8-0.2,1.5-1.2
			l0.3,0.2c-0.8,1.3-1.8,1.9-3,1.9c-2.2,0-3-1.1-2.7-2.9l-0.1,0c-0.6,1.7-1.7,2.9-3.6,2.9c-2.6,0-3.6-1.5-3.6-3.8
			c0-4.1,1.9-7.1,5.4-7.1c1.6,0,2.2,0.7,2.5,1.7l1.1-7.1h-1.4l0.1-0.4h5.6L-2516.1-420z M-2520.9-415.4c0.5-1.5,0.8-3.4,0.8-5.2
			c0-1.3-0.6-1.8-1.2-1.8c-0.7,0-1.1,0.6-1.6,2.2c-0.5,1.7-0.9,4.1-0.9,5.7c0,0.8,0.1,1.6,1,1.6
			C-2522.2-412.9-2521.5-413.7-2520.9-415.4z"/>
		<path class="st6" d="M-2514.2-416.2c0-4,2.3-6.8,6.5-6.8c2.9,0,4.5,1.2,4.5,4c0,4.6-2.6,7-6.5,7
			C-2512.7-412-2514.2-413.4-2514.2-416.2z M-2506.9-421c0-1-0.3-1.5-0.9-1.5c-1.4,0-1.7,1.7-2.3,5.2c-0.2,1.4-0.4,2.7-0.4,3.4
			c0,1,0.3,1.5,1,1.5c1.2,0,1.6-1.2,2.3-5.3C-2507-419.1-2506.9-420.2-2506.9-421z"/>
		<path class="st6" d="M-2496.2-414.3c0-1.2-1-1.5-2.5-2.1c-1.3-0.5-2.6-1.2-2.6-3c0-2.4,2.3-3.6,5.4-3.6c1.8,0,4,0.3,4,2.2
			c0,1-0.7,1.7-1.8,1.7c-0.8,0-1.5-0.4-1.5-1.1c0-0.4,0.1-0.7,0.3-1h0.7c0.1-0.2,0.1-0.4,0.1-0.5c0-0.5-0.5-0.8-1.5-0.8
			c-1.7,0-2.3,0.7-2.3,1.5c0,1.1,0.8,1.4,2.2,2c1.5,0.6,3.1,1.1,3.1,3c0,2.7-2.5,4-5.8,4c-2.5,0-4.1-0.8-4.1-2.4
			c0-1.2,0.8-1.8,1.9-1.8c1,0,1.5,0.6,1.5,1.4c0,0.3-0.1,0.6-0.2,0.9h-0.9c-0.1,0.2-0.1,0.3-0.1,0.4c0,0.6,0.5,1.1,1.8,1.1
			C-2496.6-412.5-2496.2-413.5-2496.2-414.3z"/>
		<path class="st16" d="M-2486.9-414.3c0,1.4-0.9,2.3-2.3,2.3c-1.3,0-1.7-0.9-1.7-1.6c0-1.3,1.1-2.2,2.2-2.2
			C-2487.5-415.8-2486.9-415.3-2486.9-414.3z"/>
		<path class="st16" d="M-2480.4-413.9c-0.2,0.8-0.7,1.8-2.2,1.8c-1.4,0-2.2-0.7-2.2-2c0-1.9,1.2-3.1,3.2-3.1c1.1,0,1.6,0.6,1.6,1.2
			c0,0.6-0.3,1.1-1,1.1c-0.6,0-0.7-0.3-0.7-0.6c0-0.2,0.1-0.4,0.2-0.5h0.4c0.1-0.2,0.1-0.3,0.1-0.5c0-0.3-0.2-0.4-0.4-0.4
			c-0.7,0-1,0.8-1.2,1.7c-0.1,0.5-0.2,1.1-0.2,1.6c0,0.8,0.3,1.2,0.8,1.2c0.5,0,1.1-0.4,1.4-1.5L-2480.4-413.9z"/>
		<path class="st16" d="M-2479.8-414.1c0-1.8,1-3.1,3-3.1c1.4,0,2.1,0.6,2.1,1.8c0,2.1-1.2,3.2-3,3.2
			C-2479.1-412.1-2479.8-412.8-2479.8-414.1z M-2476.4-416.3c0-0.5-0.1-0.7-0.4-0.7c-0.6,0-0.8,0.8-1.1,2.4
			c-0.1,0.7-0.2,1.2-0.2,1.6c0,0.5,0.1,0.7,0.5,0.7c0.6,0,0.7-0.6,1-2.4C-2476.5-415.4-2476.4-415.9-2476.4-416.3z"/>
		<path class="st16" d="M-2470.5-415.8c0.2-0.7,0.2-0.9-0.1-0.9c-0.2,0-0.6,0.2-0.9,1.1c-0.4,0.8-0.6,1.7-0.7,3.3
			c-0.3,0-1.7,0-2,0.1l0.4-1.9l0.4-2.8h-0.7l0-0.2h2.6l-0.4,1.7l0,0c0.5-1,0.9-1.8,2.1-1.8c0.7,0,0.9,0.3,0.9,0.8
			c0,0.2-0.1,0.5-0.2,0.8l0,0c0.3-0.6,0.8-1.6,2-1.6c0.7,0,1.1,0.4,1.1,1c0,0.3-0.1,0.6-0.1,0.9l-0.5,1.9c-0.1,0.3-0.1,0.5-0.1,0.6
			c0,0.2,0.1,0.2,0.3,0.2c0.2,0,0.4-0.2,0.6-0.6l0.2,0.1c-0.4,0.6-0.8,0.9-1.5,0.9c-0.8,0-1.3-0.3-1.3-1.2c0-0.7,0.5-2.2,0.6-2.4
			c0.2-0.5,0.3-0.9,0-0.9c-0.2,0-0.5,0.3-0.8,0.9c-0.4,0.8-0.7,2-0.8,3.5c-0.3,0-1.7,0-1.9,0.1
			C-2471.2-413.4-2470.9-414.5-2470.5-415.8z"/>
	</g>
	<g>
		<path class="st6" d="M-1722.8-401.6h-7.6l-4,8h3l-0.1,0.7h-6l0.1-0.7h2l12.8-25.3h4.5l3.7,25.3h2.2l-0.1,0.7h-11.6l0.1-0.7h2
			L-1722.8-401.6z M-1730-402.5h7.2l-1.4-11.3L-1730-402.5z"/>
		<path class="st6" d="M-1700.3-396.3c0-2-1.7-2.5-4.2-3.5c-2.1-0.8-4.4-2-4.4-5.1c0-4.1,4-6.1,9.1-6.1c3,0,6.7,0.5,6.7,3.7
			c0,1.7-1.2,2.8-3.1,2.8c-1.3,0-2.5-0.7-2.5-1.8c0-0.6,0.1-1.2,0.6-1.8h1.2c0.1-0.3,0.2-0.6,0.2-0.9c0-0.9-0.8-1.3-2.5-1.3
			c-2.8,0-4,1.2-4,2.5c0,1.8,1.3,2.3,3.8,3.3c2.5,1,5.3,1.9,5.3,5.1c0,4.5-4.2,6.8-9.8,6.8c-4.2,0-7-1.3-7-4.1c0-2,1.3-3.1,3.2-3.1
			c1.6,0,2.5,1,2.5,2.3c0,0.5-0.1,1-0.3,1.5h-1.5c-0.1,0.3-0.1,0.5-0.1,0.7c0,1,0.9,1.8,3,1.8C-1701-393.3-1700.3-395-1700.3-396.3z
			"/>
		<path class="st6" d="M-1674.5-406.8c0,3.7-4,4.7-7.5,5.2c-1.2,0.1-2.1,0.2-2.9,0.2c-0.5,5.3,0.5,7.5,3.1,7.5
			c1.8,0,3.8-1.3,5.1-5.4l0.7,0.2c-1.4,4.6-4.1,6.5-8.6,6.5c-4.7,0-7.5-2.5-7.5-6.9c0-7.6,4.6-11.6,11.2-11.6
			C-1676.5-411-1674.5-409.5-1674.5-406.8z M-1681.1-410.3c-2,0-3.2,3.7-3.7,8.2c2.5-0.1,4.8-1.3,4.8-5.9
			C-1680-409.4-1680.2-410.3-1681.1-410.3z"/>
		<path class="st6" d="M-1670.2-386.8c-0.3,1.5,0.4,2.3,2.1,2.3c2.9,0,4.4-2,6-8.5c0.2-1,0.4-1.5,0.6-2.8l-0.1-0.1
			c-0.9,1.7-2.5,3.2-5.7,3.2c-3.8,0-5.9-2.1-5.9-6.4c0-5.6,2.2-12.1,8.9-12.1c2.8,0,3.8,1.6,4.4,2.7l0.5-2.2c1.8,0,5.4,0,6.8-0.3
			c-0.8,3.8-1.3,5.7-2.8,15.5c-1.2,7.9-6,11.7-12.7,11.7c-3.3,0-6.6-1.3-6.6-4.3c0-2.4,1.6-3.7,3.5-3.7c1.9,0,3.6,1.1,3.1,4.1
			L-1670.2-386.8z M-1661.7-397.8c0.8-2.3,1.4-5.4,1.4-8c0-2.4-0.8-3.9-2.1-3.9c-1.3,0-2.1,1.3-2.8,3.8c-0.8,2.9-1.3,6.1-1.3,9.2
			c0,1.4,0.3,2.8,1.7,2.8C-1663.8-394-1662.7-395.1-1661.7-397.8z"/>
		<path class="st6" d="M-1647.7-409.9h-2.5l0.1-0.7h9.5c-1.6,7-2.5,11.2-2.9,13.9c-0.1,0.9-0.4,2.2,0.9,2.2c1.6,0,3.5-3.8,4.5-9.2
			c0.4-2.1,0.8-4.8,0.8-6.4c1.2,0,6.4-0.2,7.5-0.4c-0.9,4.5-2.2,11-2.6,14.4c-0.1,1.2-0.3,2.4,0.9,2.4c0.7,0,1.5-0.6,2.5-2.1
			l0.6,0.4c-1.5,2.3-3.2,3.1-5.4,3.1c-4.2,0-5.6-2.1-4.3-6.4l-0.2-0.1c-1.3,3.6-3.2,6.4-7.5,6.4c-3.5,0-4.7-2.5-4.1-5.7
			C-1649.4-401.3-1648.2-407.7-1647.7-409.9z"/>
		<path class="st6" d="M-1625.7-400.2l1.3-9.7h-2.5l0.1-0.7h9.2l-1.6,7l0.2,0c1.1-2.9,3.8-7.4,7.9-7.4c1.6,0,3.5,0.8,3.5,3.3
			c0,2.5-1.6,3.6-3.5,3.6c-0.8,0-1.7-0.2-2.6-0.6l-0.2-3.1c-2,0.1-4,2.8-4.9,6.9c-0.8,3.4-1,5.7-1,7.9c-1.6-0.1-5.6,0.2-7.5,0.5
			L-1625.7-400.2z"/>
		<path class="st6" d="M-1585.6-395.7c-1.3,2.2-2.9,3.2-5,3.2c-3.7,0-5.1-1.9-4.5-4.9l-0.2,0c-1,2.9-2.9,4.9-6.2,4.9
			c-4.3,0-6-2.5-6-6.5c0-6.9,3.1-12,9.2-12c2.8,0,3.6,1,4.2,2.5l0.5-2c1.8,0,5.4,0,6.8-0.3c-0.9,4.6-1.9,8.9-2.7,14.3
			c-0.1,0.5-0.1,1-0.1,1.3c0,1,0.4,1.2,1,1.2c0.6,0,1.4-0.4,2.5-2L-1585.6-395.7z M-1595.8-398.2c0.8-2.6,1.3-5.7,1.3-8.7
			c0-2.2-1-3.1-2.1-3.1c-1.1,0-1.9,1-2.6,3.7c-0.8,2.9-1.5,7-1.5,9.7c0,1.3,0.1,2.7,1.6,2.7C-1598-394-1596.7-395.3-1595.8-398.2z"
			/>
		<path class="st6" d="M-1564.7-406c-0.6,3.5-1.2,6.6-1.7,9.5c-0.1,0.5-0.1,1-0.1,1.3c0,1,0.4,1.2,1,1.2c0.6,0,1.4-0.4,2.5-2
			l0.6,0.3c-1.3,2.2-3,3.2-5.1,3.2c-3.7,0-5.1-1.9-4.5-4.9l-0.2,0c-1,2.9-2.9,4.9-6.2,4.9c-4.3,0-6-2.5-6-6.5c0-6.9,3.1-12,9.2-12
			c2.6,0,3.7,1.2,4.3,2.9l1.8-12h-2.4l0.1-0.7h9.5L-1564.7-406z M-1572.9-398.2c0.8-2.6,1.3-5.7,1.3-8.7c0-2.2-1-3.1-2.1-3.1
			c-1.1,0-1.9,1-2.6,3.7c-0.8,2.9-1.5,7-1.5,9.7c0,1.3,0.1,2.7,1.6,2.7C-1575-394-1573.8-395.3-1572.9-398.2z"/>
		<path class="st6" d="M-1561.5-399.5c0-6.7,3.8-11.5,11-11.5c5,0,7.6,2,7.6,6.7c0,7.8-4.4,11.8-10.9,11.8
			C-1558.9-392.5-1561.5-394.9-1561.5-399.5z M-1549.2-407.7c0-1.7-0.4-2.6-1.5-2.6c-2.3,0-2.9,2.9-4,8.8c-0.4,2.4-0.6,4.5-0.6,5.8
			c0,1.7,0.4,2.5,1.7,2.5c2.1,0,2.6-2,3.8-8.9C-1549.4-404.4-1549.2-406.3-1549.2-407.7z"/>
		<path class="st6" d="M-1531.2-396.3c0-2-1.7-2.5-4.2-3.5c-2.1-0.8-4.4-2-4.4-5.1c0-4.1,4-6.1,9.1-6.1c3,0,6.7,0.5,6.7,3.7
			c0,1.7-1.2,2.8-3.1,2.8c-1.3,0-2.5-0.7-2.5-1.8c0-0.6,0.1-1.2,0.6-1.8h1.2c0.1-0.3,0.2-0.6,0.2-0.9c0-0.9-0.8-1.3-2.5-1.3
			c-2.8,0-4,1.2-4,2.5c0,1.8,1.3,2.3,3.8,3.3c2.5,1,5.3,1.9,5.3,5.1c0,4.5-4.2,6.8-9.8,6.8c-4.2,0-7-1.3-7-4.1c0-2,1.3-3.1,3.2-3.1
			c1.6,0,2.5,1,2.5,2.3c0,0.5-0.1,1-0.3,1.5h-1.5c-0.1,0.3-0.1,0.5-0.1,0.7c0,1,0.9,1.8,3,1.8
			C-1531.9-393.3-1531.2-395-1531.2-396.3z"/>
		<path class="st16" d="M-1515.4-396.4c0,2.4-1.5,3.9-3.8,3.9c-2.1,0-2.8-1.5-2.8-2.8c0-2.2,1.9-3.7,3.8-3.7
			C-1516.6-398.9-1515.4-398-1515.4-396.4z"/>
		<path class="st16" d="M-1504.6-395.7c-0.3,1.3-1.2,3-3.7,3c-2.4,0-3.6-1.2-3.6-3.3c0-3.1,1.9-5.2,5.3-5.2c1.9,0,2.7,0.9,2.7,1.9
			c0,0.9-0.5,1.8-1.7,1.8c-0.9,0-1.2-0.6-1.2-1.1c0-0.3,0.1-0.6,0.3-0.9h0.7c0.1-0.3,0.2-0.6,0.2-0.8c0-0.5-0.4-0.7-0.7-0.7
			c-1.1,0-1.7,1.3-1.9,2.9c-0.2,0.9-0.3,1.8-0.3,2.7c0,1.4,0.4,2,1.4,2c0.8,0,1.8-0.7,2.3-2.5L-1504.6-395.7z"/>
		<path class="st16" d="M-1503.6-395.9c0-3.1,1.8-5.3,5.1-5.3c2.3,0,3.5,0.9,3.5,3.1c0,3.6-2,5.4-5,5.4
			C-1502.4-392.7-1503.6-393.8-1503.6-395.9z M-1497.9-399.7c0-0.8-0.2-1.2-0.7-1.2c-1.1,0-1.4,1.3-1.8,4.1
			c-0.2,1.1-0.3,2.1-0.3,2.7c0,0.8,0.2,1.2,0.8,1.2c1,0,1.2-0.9,1.8-4.1C-1498-398.2-1497.9-399.1-1497.9-399.7z"/>
		<path class="st16" d="M-1487.9-398.8c0.3-1.1,0.3-1.5-0.2-1.5c-0.4,0-0.9,0.4-1.6,1.8c-0.6,1.3-1,2.9-1.2,5.6
			c-0.5,0-2.9,0.1-3.4,0.2l0.7-3.2l0.7-4.8h-1.2l0-0.3h4.4l-0.7,2.9l0.1,0c0.8-1.7,1.6-3,3.6-3c1.1,0,1.6,0.6,1.6,1.4
			c0,0.4-0.1,0.8-0.3,1.3l0.1,0c0.5-1,1.3-2.7,3.3-2.7c1.2,0,1.8,0.7,1.8,1.6c0,0.6-0.1,1-0.2,1.5l-0.8,3.2
			c-0.1,0.4-0.2,0.9-0.2,1.1c0,0.3,0.2,0.4,0.4,0.4c0.3,0,0.7-0.3,1.1-1l0.3,0.2c-0.7,1-1.3,1.5-2.5,1.5c-1.3,0-2.3-0.6-2.3-2
			c0-1.1,0.9-3.8,1-4.1c0.3-0.8,0.6-1.5,0-1.5c-0.4,0-0.9,0.5-1.4,1.5c-0.7,1.4-1.1,3.4-1.4,5.9c-0.5,0-2.8,0.1-3.3,0.2
			C-1489-394.8-1488.4-396.7-1487.9-398.8z"/>
	</g>
	<g>
		<rect x="-3022.5" y="-429.3" class="st6" width="28" height="4"/>
		<rect x="-3022.5" y="-420.8" class="st6" width="28" height="4"/>
		<rect x="-3022.5" y="-412.3" class="st6" width="28" height="4"/>
	</g>
	<rect x="-3702.5" y="-367.1" style="fill:none;" width="290.9" height="70"/>
	<text transform="matrix(1 0 0 1 -3697.7842 -339.7306)"><tspan x="0" y="0" class="st7" style="font-family:'OpenSans-Semibold'; font-size:36px;">Cotiza tu seguro </tspan><tspan x="44.1" y="36" class="st7" style="font-family:'OpenSans-Semibold'; font-size:36px;">automotriz</tspan></text>
	<g>
		<rect x="-3742.6" y="3" class="st8" width="370.1" height="256"/>
		<g>
			<rect x="-3732.1" y="17.5" class="st12" width="350" height="40"/>
			<text transform="matrix(1 0 0 1 -3716.989 43.894)" class="st13" style="font-family:'OpenSans'; font-size:16px;">Marca del auto</text>
			<g>
				<g>
					<polygon class="st13" points="-3392.7,36.4 -3394.7,34.4 -3401.2,40.9 -3407.6,34.4 -3409.6,36.4 -3401.2,44.9 					"/>
				</g>
			</g>
		</g>
		<g>
			<rect x="-3732.1" y="97.5" class="st12" width="350" height="40"/>
			<text transform="matrix(1 0 0 1 -3716.5588 123.894)" class="st13" style="font-family:'OpenSans'; font-size:16px;">Email</text>
		</g>
		<g>
			<rect x="-3732.1" y="136.8" class="st12" width="350" height="40"/>
			<text transform="matrix(1 0 0 1 -3716.5588 163.2145)" class="st13" style="font-family:'OpenSans'; font-size:16px;">Teléfono celular</text>
		</g>
		<g>
			<rect x="-3732.1" y="57.5" class="st12" width="240" height="40"/>
			<text transform="matrix(1 0 0 1 -3717.1299 83.894)" class="st13" style="font-family:'OpenSans'; font-size:16px;">Modelo del auto</text>
			<g>
				<g>
					<polygon class="st13" points="-3505.1,76.4 -3507.1,74.4 -3513.5,80.9 -3520,74.4 -3522,76.4 -3513.5,84.9 					"/>
				</g>
			</g>
		</g>
		<g>
			<rect x="-3492.1" y="57.5" class="st12" width="110" height="40"/>
			<text transform="matrix(1 0 0 1 -3471.3799 83.894)" class="st13" style="font-family:'OpenSans'; font-size:16px;">año</text>
			<g>
				<g>
					<polygon class="st13" points="-3392.6,76.4 -3394.6,74.4 -3401.1,80.9 -3407.6,74.4 -3409.6,76.4 -3401.1,84.9 					"/>
				</g>
			</g>
		</g>
		<rect x="-3742.2" y="-1" class="st7" width="369.7" height="4"/>
		<g>
			<path class="st14" d="M-3386.1,234h-342c-2.2,0-4-1.8-4-4v-36c0-2.2,1.8-4,4-4h342c2.2,0,4,1.8,4,4v36
				C-3382.1,232.3-3383.9,234-3386.1,234z"/>
			<path class="st15" d="M-3386.1,230.5h-342c-2.2,0-4-1.8-4-4v-36c0-2.2,1.8-4,4-4h342c2.2,0,4,1.8,4,4v36
				C-3382.1,228.8-3383.9,230.5-3386.1,230.5z"/>
			<text transform="matrix(1 0 0 1 -3615.5847 214.3707)" class="st6" style="font-family:'OpenSans-Semibold'; font-size:18px;">Cotizar ahora</text>
		</g>
	</g>
	<g>
		<rect x="-3782.4" y="-226.6" class="st6" width="40" height="16"/>
		<text transform="matrix(1 0 0 1 -3774.6604 -214.7745)" style="font-family:'OpenSans-Semibold'; font-size:12px;">1 / 3</text>
	</g>
	<rect x="-3797.1" y="310.6" class="st17" width="480" height="128.7"/>
	<rect x="-3797.1" y="439.3" width="480" height="23.8"/>
	<text transform="matrix(1 0 0 1 -3600.5063 455.3848)" class="st6" style="font-family:'OpenSans-Semibold'; font-size:12px;">Copyright 2020</text>
	<g>
		<rect x="-3757.2" y="333.6" style="fill:none;" width="154.4" height="93.8"/>
		<text transform="matrix(1 0 0 1 -3756.1929 342.7171)"><tspan x="0" y="0" class="st6" style="font-family:'OpenSans-Semibold'; font-size:12px;">Acerca de nosotros</tspan><tspan x="0" y="28.8" class="st6" style="font-family:'OpenSans-Semibold'; font-size:12px;">Descarga tu poliza</tspan><tspan x="0" y="57.6" class="st6" style="font-family:'OpenSans-Semibold'; font-size:12px;">Términos y condiciones</tspan></text>
		<path class="st6" d="M-3765.4,338.9c0,1.8-1.5,3.3-3.3,3.3c-1.8,0-3.3-1.5-3.3-3.3c0-1.8,1.5-3.3,3.3-3.3
			C-3766.9,335.6-3765.4,337.1-3765.4,338.9z"/>
		<path class="st6" d="M-3765.4,367.4c0,1.8-1.5,3.3-3.3,3.3c-1.8,0-3.3-1.5-3.3-3.3c0-1.8,1.5-3.3,3.3-3.3
			C-3766.9,364.1-3765.4,365.6-3765.4,367.4z"/>
		<path class="st6" d="M-3765.4,395.9c0,1.8-1.5,3.3-3.3,3.3c-1.8,0-3.3-1.5-3.3-3.3c0-1.8,1.5-3.3,3.3-3.3
			C-3766.9,392.5-3765.4,394-3765.4,395.9z"/>
	</g>
	<path class="st6" d="M-3461.4,367.4c0-6.6-5.3-11.9-11.9-11.9s-11.9,5.3-11.9,11.9c0,6.6,5.3,11.9,11.9,11.9c0.1,0,0.1,0,0.2,0V370
		h-2.6v-3h2.6v-2.2c0-2.5,1.6-3.9,3.8-3.9c1.1,0,2,0.1,2.3,0.1v2.7h-1.6c-1.2,0-1.5,0.6-1.5,1.4v1.9h2.9l-0.4,3h-2.6v8.8
		C-3465,377.4-3461.4,372.8-3461.4,367.4z"/>
	<g>
		<path class="st6" d="M-3402.2,367.4c0,1.3-1,2.3-2.3,2.3s-2.3-1-2.3-2.3c0-1.3,1-2.3,2.3-2.3S-3402.2,366.1-3402.2,367.4z"/>
		<path class="st6" d="M-3399.1,363.3c-0.1-0.3-0.3-0.6-0.5-0.8c-0.2-0.2-0.5-0.4-0.8-0.5c-0.2-0.1-0.6-0.2-1.3-0.2
			c-0.7,0-0.9,0-2.8,0c-1.8,0-2,0-2.8,0c-0.7,0-1,0.1-1.3,0.2c-0.3,0.1-0.6,0.3-0.8,0.5c-0.2,0.2-0.4,0.5-0.5,0.8
			c-0.1,0.2-0.2,0.6-0.2,1.3c0,0.7,0,0.9,0,2.8c0,1.8,0,2,0,2.8c0,0.7,0.1,1,0.2,1.3c0.1,0.3,0.3,0.6,0.5,0.8
			c0.2,0.2,0.5,0.4,0.8,0.5c0.2,0.1,0.6,0.2,1.3,0.2c0.7,0,0.9,0,2.8,0c1.8,0,2,0,2.8,0c0.7,0,1-0.1,1.3-0.2
			c0.6-0.2,1.1-0.7,1.3-1.3c0.1-0.2,0.2-0.6,0.2-1.3c0-0.7,0-0.9,0-2.8c0-1.8,0-2,0-2.8C-3398.9,363.9-3399,363.6-3399.1,363.3z
			 M-3404.4,370.9c-1.9,0-3.5-1.6-3.5-3.5c0-1.9,1.6-3.5,3.5-3.5c1.9,0,3.5,1.6,3.5,3.5C-3400.9,369.3-3402.5,370.9-3404.4,370.9z
			 M-3400.8,364.5c-0.5,0-0.8-0.4-0.8-0.8s0.4-0.8,0.8-0.8s0.8,0.4,0.8,0.8C-3400,364.2-3400.3,364.5-3400.8,364.5z"/>
		<path class="st6" d="M-3404.4,355.5c-6.6,0-11.9,5.3-11.9,11.9c0,6.6,5.3,11.9,11.9,11.9c6.6,0,11.9-5.3,11.9-11.9
			C-3392.6,360.8-3397.9,355.5-3404.4,355.5z M-3397.7,370.2c0,0.7-0.1,1.2-0.3,1.7c-0.4,0.9-1.1,1.6-2,2c-0.4,0.2-0.9,0.3-1.7,0.3
			c-0.7,0-1,0-2.8,0c-1.9,0-2.1,0-2.8,0c-0.7,0-1.2-0.1-1.7-0.3c-0.5-0.2-0.9-0.4-1.2-0.8c-0.3-0.3-0.6-0.8-0.8-1.2
			c-0.2-0.4-0.3-0.9-0.3-1.7c0-0.7,0-1,0-2.8s0-2.1,0-2.8c0-0.7,0.1-1.2,0.3-1.7c0.2-0.5,0.4-0.9,0.8-1.2c0.3-0.3,0.8-0.6,1.2-0.8
			c0.4-0.2,0.9-0.3,1.7-0.3c0.7,0,1,0,2.8,0s2.1,0,2.8,0c0.7,0,1.2,0.1,1.7,0.3c0.5,0.2,0.9,0.4,1.2,0.8c0.3,0.3,0.6,0.8,0.8,1.2
			c0.2,0.4,0.3,0.9,0.3,1.7c0,0.7,0,1,0,2.8S-3397.6,369.4-3397.7,370.2z"/>
	</g>
	<g>
		<path class="st6" d="M-3440.3,369.6l3.9-2.2l-3.9-2.2V369.6z"/>
		<path class="st6" d="M-3438.9,355.5c-6.6,0-11.9,5.3-11.9,11.9c0,6.6,5.3,11.9,11.9,11.9c6.6,0,11.9-5.3,11.9-11.9
			C-3427,360.8-3432.3,355.5-3438.9,355.5z M-3431.4,367.4c0,0,0,2.4-0.3,3.6c-0.2,0.6-0.7,1.1-1.3,1.3c-1.2,0.3-5.8,0.3-5.8,0.3
			s-4.6,0-5.8-0.3c-0.6-0.2-1.1-0.7-1.3-1.3c-0.3-1.1-0.3-3.6-0.3-3.6s0-2.4,0.3-3.6c0.2-0.6,0.7-1.1,1.3-1.3
			c1.2-0.3,5.8-0.3,5.8-0.3s4.6,0,5.8,0.3c0.6,0.2,1.1,0.7,1.3,1.3C-3431.4,364.9-3431.4,367.4-3431.4,367.4z"/>
	</g>
	<text transform="matrix(1 0 0 1 -3539.3455 342.2934)" class="st6" style="font-family:'OpenSans-Semibold'; font-size:12px;">Síguenos en nuestras redes sociales</text>
	<text transform="matrix(1 0 0 1 -3656.3511 -276.0959)" class="st13" style="font-family:'OpenSans-Semibold'; font-size:16px;">¡Resultados instantáneos!</text>
	<g>
		<g>
			
				<image style="overflow:visible;opacity:0.45;" width="505" height="258" xlink:href="7F9CF08614C2842D.png"  transform="matrix(1 0 0 1 -4405.062 -399.7736)">
			</image>
			<g>
				<rect x="-4392.4" y="-394.8" class="st18" width="479.8" height="233.3"/>
			</g>
		</g>
		<rect x="-4371.1" y="-367.1" class="st19" width="2" height="174.6"/>
		<g>
			<text transform="matrix(1 0 0 1 -4346.1758 -345.4995)" class="st19" style="font-family:'OpenSans'; font-size:22px;">Acerca de nosotros</text>
			<g>
				<g>
					<polygon class="st19" points="-3955.8,-348.7 -3953.8,-346.7 -3947.4,-353.2 -3940.9,-346.7 -3938.9,-348.7 -3947.4,-357.2 
											"/>
				</g>
			</g>
		</g>
		<g>
			<text transform="matrix(1 0 0 1 -4346.1758 -249.2942)" class="st19" style="font-family:'OpenSans'; font-size:22px;">Descarga tu Poliza</text>
			<g>
				<g>
					<polygon class="st19" points="-3938.9,-259 -3940.9,-261 -3947.4,-254.5 -3953.8,-261 -3955.8,-259 -3947.4,-250.5 					"/>
				</g>
			</g>
		</g>
		<g>
			<text transform="matrix(1 0 0 1 -4346.1758 -203.0934)" class="st19" style="font-family:'OpenSans'; font-size:22px;">Términos y condiciones</text>
		</g>
		<g>
			<g>
				<text transform="matrix(1 0 0 1 -4324.3589 -318.1228)" class="st19" style="font-family:'OpenSans'; font-size:16px;">Misión</text>
			</g>
		</g>
		<g>
			<text transform="matrix(1 0 0 1 -4324.3589 -293.7356)" class="st19" style="font-family:'OpenSans'; font-size:16px;">Visión</text>
		</g>
		<path class="st19" d="M-4337.5-323.9c0,1.8-1.5,3.3-3.3,3.3s-3.3-1.5-3.3-3.3c0-1.8,1.5-3.3,3.3-3.3S-4337.5-325.8-4337.5-323.9z"
			/>
		<circle class="st19" cx="-4340.9" cy="-300" r="3.3"/>
	</g>
	<g>
		<rect x="-3037.3" y="288.3" class="st17" width="991" height="128.7"/>
		<rect x="-3037.3" y="417" width="991" height="23.8"/>
		<text transform="matrix(1 0 0 1 -2585.5066 433.072)" class="st6" style="font-family:'OpenSans-Semibold'; font-size:12px;">Copyright 2020</text>
		<g>
			<rect x="-2885.6" y="311.3" style="fill:none;" width="154.4" height="93.8"/>
			<text transform="matrix(1 0 0 1 -2884.5686 320.4043)"><tspan x="0" y="0" class="st6" style="font-family:'OpenSans-Semibold'; font-size:12px;">Acerca de nosotros</tspan><tspan x="0" y="28.8" class="st6" style="font-family:'OpenSans-Semibold'; font-size:12px;">Descarga tu poliza</tspan><tspan x="0" y="57.6" class="st6" style="font-family:'OpenSans-Semibold'; font-size:12px;">Términos y condiciones</tspan></text>
			<path class="st6" d="M-2893.7,316.6c0,1.8-1.5,3.3-3.3,3.3s-3.3-1.5-3.3-3.3c0-1.8,1.5-3.3,3.3-3.3S-2893.7,314.8-2893.7,316.6z"
				/>
			<path class="st6" d="M-2893.7,345.1c0,1.8-1.5,3.3-3.3,3.3s-3.3-1.5-3.3-3.3c0-1.8,1.5-3.3,3.3-3.3S-2893.7,343.2-2893.7,345.1z"
				/>
			<path class="st6" d="M-2893.7,373.6c0,1.8-1.5,3.3-3.3,3.3s-3.3-1.5-3.3-3.3c0-1.8,1.5-3.3,3.3-3.3S-2893.7,371.7-2893.7,373.6z"
				/>
		</g>
		<path class="st6" d="M-2318.8,345c0-6.6-5.3-11.9-11.9-11.9s-11.9,5.3-11.9,11.9c0,6.6,5.3,11.9,11.9,11.9c0.1,0,0.1,0,0.2,0v-9.2
			h-2.6v-3h2.6v-2.2c0-2.5,1.6-3.9,3.8-3.9c1.1,0,2,0.1,2.3,0.1v2.7h-1.6c-1.2,0-1.5,0.6-1.5,1.4v1.9h2.9l-0.4,3h-2.6v8.8
			C-2322.4,355-2318.8,350.5-2318.8,345z"/>
		<g>
			<path class="st6" d="M-2259.5,345c0,1.3-1,2.3-2.3,2.3s-2.3-1-2.3-2.3c0-1.3,1-2.3,2.3-2.3S-2259.5,343.8-2259.5,345z"/>
			<path class="st6" d="M-2256.5,341c-0.1-0.3-0.3-0.6-0.5-0.8c-0.2-0.2-0.5-0.4-0.8-0.5c-0.2-0.1-0.6-0.2-1.3-0.2
				c-0.7,0-0.9,0-2.8,0c-1.8,0-2,0-2.8,0c-0.7,0-1,0.1-1.3,0.2c-0.3,0.1-0.6,0.3-0.8,0.5c-0.2,0.2-0.4,0.5-0.5,0.8
				c-0.1,0.2-0.2,0.6-0.2,1.3c0,0.7,0,0.9,0,2.8s0,2,0,2.8c0,0.7,0.1,1,0.2,1.3c0.1,0.3,0.3,0.6,0.5,0.8c0.2,0.2,0.5,0.4,0.8,0.5
				c0.2,0.1,0.6,0.2,1.3,0.2c0.7,0,0.9,0,2.8,0c1.8,0,2,0,2.8,0c0.7,0,1-0.1,1.3-0.2c0.6-0.2,1.1-0.7,1.3-1.3
				c0.1-0.2,0.2-0.6,0.2-1.3c0-0.7,0-0.9,0-2.8s0-2,0-2.8C-2256.3,341.6-2256.4,341.3-2256.5,341z M-2261.8,348.5
				c-1.9,0-3.5-1.6-3.5-3.5c0-1.9,1.6-3.5,3.5-3.5c1.9,0,3.5,1.6,3.5,3.5C-2258.3,347-2259.9,348.5-2261.8,348.5z M-2258.2,342.2
				c-0.5,0-0.8-0.4-0.8-0.8c0-0.5,0.4-0.8,0.8-0.8s0.8,0.4,0.8,0.8C-2257.3,341.9-2257.7,342.2-2258.2,342.2z"/>
			<path class="st6" d="M-2261.8,333.2c-6.6,0-11.9,5.3-11.9,11.9s5.3,11.9,11.9,11.9c6.6,0,11.9-5.3,11.9-11.9
				S-2255.2,333.2-2261.8,333.2z M-2255,347.9c0,0.7-0.1,1.2-0.3,1.7c-0.4,0.9-1.1,1.6-2,2c-0.4,0.2-0.9,0.3-1.7,0.3
				c-0.7,0-1,0-2.8,0c-1.9,0-2.1,0-2.8,0c-0.7,0-1.2-0.1-1.7-0.3c-0.5-0.2-0.9-0.4-1.2-0.8c-0.3-0.3-0.6-0.8-0.8-1.2
				c-0.2-0.4-0.3-0.9-0.3-1.7c0-0.7,0-1,0-2.8c0-1.9,0-2.1,0-2.8c0-0.7,0.1-1.2,0.3-1.7c0.2-0.5,0.4-0.9,0.8-1.2
				c0.3-0.3,0.8-0.6,1.2-0.8c0.4-0.2,0.9-0.3,1.7-0.3c0.7,0,1,0,2.8,0s2.1,0,2.8,0c0.7,0,1.2,0.1,1.7,0.3c0.5,0.2,0.9,0.4,1.2,0.8
				c0.3,0.3,0.6,0.8,0.8,1.2c0.2,0.4,0.3,0.9,0.3,1.7c0,0.7,0,1,0,2.8C-2255,346.9-2255,347.1-2255,347.9z"/>
		</g>
		<g>
			<path class="st6" d="M-2297.7,347.3l3.9-2.2l-3.9-2.2V347.3z"/>
			<path class="st6" d="M-2296.2,333.2c-6.6,0-11.9,5.3-11.9,11.9s5.3,11.9,11.9,11.9c6.6,0,11.9-5.3,11.9-11.9
				S-2289.7,333.2-2296.2,333.2z M-2288.8,345.1c0,0,0,2.4-0.3,3.6c-0.2,0.6-0.7,1.1-1.3,1.3c-1.2,0.3-5.8,0.3-5.8,0.3
				s-4.6,0-5.8-0.3c-0.6-0.2-1.1-0.7-1.3-1.3c-0.3-1.1-0.3-3.6-0.3-3.6s0-2.4,0.3-3.6c0.2-0.6,0.7-1.1,1.3-1.3
				c1.2-0.3,5.8-0.3,5.8-0.3s4.6,0,5.8,0.3c0.6,0.2,1.1,0.7,1.3,1.3C-2288.8,342.6-2288.8,345.1-2288.8,345.1z"/>
		</g>
		<text transform="matrix(1 0 0 1 -2396.7087 319.9806)" class="st6" style="font-family:'OpenSans-Semibold'; font-size:12px;">Síguenos en nuestras redes sociales</text>
	</g>
	
		<text transform="matrix(1 0 0 1 -1237.8113 -398.5209)" class="st6" style="font-family:'OpenSans'; font-size:16px; text-decoration: underline;">Acerca de nosotros</text>
	<text transform="matrix(1 0 0 1 -1002.8066 -398.5208)" class="st19" style="font-family:'OpenSans'; font-size:16px;">Descarga tu Poliza</text>
	<g>
		<text transform="matrix(1 0 0 1 -776.8463 -398.5207)" class="st19" style="font-family:'OpenSans'; font-size:16px;">Términos y condiciones</text>
	</g>
	<g>
		<g>
			<rect x="-960.9" y="-190.1" class="st12" width="359.1" height="40"/>
			<text transform="matrix(1 0 0 1 -960.7589 -198.3785)" class="st13" style="font-family:'OpenSans'; font-size:14px;">Marca del auto</text>
			<g>
				<g>
					<polygon class="st13" points="-611.5,-171.2 -613.5,-173.2 -620,-166.7 -626.4,-173.2 -628.4,-171.2 -620,-162.7 					"/>
				</g>
			</g>
		</g>
		<g>
			<rect x="-960.9" y="-109.3" class="st12" width="164.6" height="40"/>
			<text transform="matrix(1 0 0 1 -960.7589 -117.571)" class="st13" style="font-family:'OpenSans'; font-size:14px;">Modelo del auto</text>
			<rect x="-766.4" y="-109.3" class="st12" width="164.6" height="40"/>
			<text transform="matrix(1 0 0 1 -766.2618 -117.571)" class="st13" style="font-family:'OpenSans'; font-size:14px;">Año</text>
			<g>
				<g>
					<polygon class="st13" points="-611.5,-90.4 -613.5,-92.4 -620,-85.9 -626.4,-92.4 -628.4,-90.4 -620,-81.9 					"/>
				</g>
			</g>
			<g>
				<g>
					<polygon class="st13" points="-806.4,-90.4 -808.4,-92.4 -814.9,-85.9 -821.4,-92.4 -823.4,-90.4 -814.9,-81.9 					"/>
				</g>
			</g>
		</g>
		<g>
			<rect x="-960.9" y="-28.5" class="st12" width="359.1" height="40"/>
			<text transform="matrix(1 0 0 1 -960.7589 -36.7635)" class="st13" style="font-family:'OpenSans'; font-size:14px;">Email</text>
		</g>
		<g>
			<rect x="-960.9" y="52.3" class="st12" width="359.6" height="40"/>
			<text transform="matrix(1 0 0 1 -960.7589 44.044)" class="st13" style="font-family:'OpenSans'; font-size:14px;">Teléfono celular</text>
		</g>
		<g>
			<path class="st14" d="M-671.1,172.3h-222.5c-2.2,0-4-1.8-4-4v-36c0-2.2,1.8-4,4-4h222.5c2.2,0,4,1.8,4,4v36
				C-667.1,170.5-668.9,172.3-671.1,172.3z"/>
			<path class="st15" d="M-671.1,168.8h-222.5c-2.2,0-4-1.8-4-4v-36c0-2.2,1.8-4,4-4h222.5c2.2,0,4,1.8,4,4v36
				C-667.1,167-668.9,168.8-671.1,168.8z"/>
			<text transform="matrix(1 0 0 1 -840.9073 152.6392)" class="st6" style="font-family:'OpenSans-Semibold'; font-size:18px;">Cotizar ahora</text>
		</g>
	</g>
	
		<image style="overflow:visible;" width="1920" height="1080" xlink:href="7F9CF08614C2842D.jpg"  transform="matrix(0.4039 0 0 0.4032 -1751.2395 -230.0882)">
	</image>
	<g>
		<rect x="-1736.7" y="-206.9" class="st6" width="40" height="16"/>
		<text transform="matrix(1 0 0 1 -1729.0033 -195.1149)" style="font-family:'OpenSans-Semibold'; font-size:12px;">1 / 3</text>
	</g>
	<g>
		<path class="st6" d="M-1672.4,170.3L-1672.4,170.3c-10.9,0-19.8-8.9-19.8-19.8v-0.4c0-10.9,8.9-19.8,19.8-19.8l0,0
			c10.9,0,19.8,8.9,19.8,19.8v0.4C-1652.6,161.5-1661.4,170.3-1672.4,170.3z"/>
		<g>
			<g>
				<polygon points="-1673.9,141.9 -1675.9,143.9 -1669.4,150.3 -1675.9,156.8 -1673.9,158.8 -1665.4,150.3 				"/>
			</g>
		</g>
	</g>
	<g>
		<path class="st10" d="M-1716.7,130.3L-1716.7,130.3c10.9,0,19.8,8.9,19.8,19.8v0.4c0,10.9-8.9,19.8-19.8,19.8h0
			c-10.9,0-19.8-8.9-19.8-19.8v-0.4C-1736.5,139.2-1727.6,130.3-1716.7,130.3z"/>
		<g>
			<g>
				<polygon class="st11" points="-1715.2,158.8 -1713.2,156.8 -1719.7,150.3 -1713.2,143.9 -1715.2,141.9 -1723.7,150.3 				"/>
			</g>
		</g>
	</g>
	<rect x="-1445.7" y="-335.3" style="fill:none;" width="553.7" height="39.1"/>
	<text transform="matrix(1 0 0 1 -1410.8278 -307.911)" class="st7" style="font-family:'OpenSans-Semibold'; font-size:36px;">Cotiza tu seguro automotriz</text>
	<text transform="matrix(1 0 0 1 -1268.118 -275.6586)" class="st13" style="font-family:'OpenSans-Semibold'; font-size:16px;">¡Resultados instantáneos!</text>
	<g>
		<rect x="-1898.8" y="283.5" class="st17" width="1460" height="128.7"/>
		<rect x="-1897.5" y="412.2" width="1460" height="23.8"/>
		<text transform="matrix(1 0 0 1 -1212.2736 428.2694)" class="st6" style="font-family:'OpenSans-Semibold'; font-size:12px;">Copyright 2020</text>
		<g>
			<rect x="-1718.8" y="306.5" style="fill:none;" width="154.4" height="93.8"/>
			<text transform="matrix(1 0 0 1 -1717.7933 315.6017)"><tspan x="0" y="0" class="st6" style="font-family:'OpenSans-Semibold'; font-size:12px;">Acerca de nosotros</tspan><tspan x="0" y="28.8" class="st6" style="font-family:'OpenSans-Semibold'; font-size:12px;">Descarga tu poliza</tspan><tspan x="0" y="57.6" class="st6" style="font-family:'OpenSans-Semibold'; font-size:12px;">Términos y condiciones</tspan></text>
			<path class="st6" d="M-1727,311.8c0,1.8-1.5,3.3-3.3,3.3c-1.8,0-3.3-1.5-3.3-3.3c0-1.8,1.5-3.3,3.3-3.3
				C-1728.5,308.5-1727,310-1727,311.8z"/>
			<path class="st6" d="M-1727,340.3c0,1.8-1.5,3.3-3.3,3.3c-1.8,0-3.3-1.5-3.3-3.3c0-1.8,1.5-3.3,3.3-3.3
				C-1728.5,336.9-1727,338.4-1727,340.3z"/>
			<path class="st6" d="M-1727,368.8c0,1.8-1.5,3.3-3.3,3.3c-1.8,0-3.3-1.5-3.3-3.3c0-1.8,1.5-3.3,3.3-3.3
				C-1728.5,365.4-1727,366.9-1727,368.8z"/>
		</g>
		<path class="st6" d="M-759.7,340.2c0-6.6-5.3-11.9-11.9-11.9c-6.6,0-11.9,5.3-11.9,11.9s5.3,11.9,11.9,11.9c0.1,0,0.1,0,0.2,0
			v-9.2h-2.6v-3h2.6v-2.2c0-2.5,1.5-3.9,3.8-3.9c1.1,0,2,0.1,2.3,0.1v2.7h-1.6c-1.2,0-1.5,0.6-1.5,1.4v1.9h2.9l-0.4,3h-2.6v8.8
			C-763.3,350.2-759.7,345.7-759.7,340.2z"/>
		<g>
			<path class="st6" d="M-700.4,340.2c0,1.3-1,2.3-2.3,2.3c-1.3,0-2.3-1-2.3-2.3c0-1.3,1-2.3,2.3-2.3
				C-701.5,338-700.4,339-700.4,340.2z"/>
			<path class="st6" d="M-697.4,336.2c-0.1-0.3-0.3-0.6-0.5-0.8c-0.2-0.2-0.5-0.4-0.8-0.5c-0.2-0.1-0.6-0.2-1.3-0.2
				c-0.7,0-0.9,0-2.8,0c-1.8,0-2,0-2.8,0c-0.7,0-1,0.1-1.3,0.2c-0.3,0.1-0.6,0.3-0.8,0.5c-0.2,0.2-0.4,0.5-0.5,0.8
				c-0.1,0.2-0.2,0.6-0.2,1.3c0,0.7,0,0.9,0,2.8c0,1.8,0,2,0,2.8c0,0.7,0.1,1,0.2,1.3c0.1,0.3,0.3,0.6,0.5,0.8
				c0.2,0.2,0.5,0.4,0.8,0.5c0.2,0.1,0.6,0.2,1.3,0.2c0.7,0,0.9,0,2.8,0c1.8,0,2,0,2.8,0c0.7,0,1-0.1,1.3-0.2
				c0.6-0.2,1.1-0.7,1.3-1.3c0.1-0.2,0.2-0.6,0.2-1.3c0-0.7,0-0.9,0-2.8c0-1.8,0-2,0-2.8C-697.2,336.8-697.3,336.5-697.4,336.2z
				 M-702.7,343.7c-1.9,0-3.5-1.6-3.5-3.5s1.6-3.5,3.5-3.5c1.9,0,3.5,1.6,3.5,3.5S-700.8,343.7-702.7,343.7z M-699.1,337.4
				c-0.5,0-0.8-0.4-0.8-0.8c0-0.5,0.4-0.8,0.8-0.8s0.8,0.4,0.8,0.8C-698.3,337.1-698.6,337.4-699.1,337.4z"/>
			<path class="st6" d="M-702.7,328.4c-6.6,0-11.9,5.3-11.9,11.9s5.3,11.9,11.9,11.9s11.9-5.3,11.9-11.9S-696.2,328.4-702.7,328.4z
				 M-695.9,343.1c0,0.7-0.1,1.2-0.3,1.7c-0.4,0.9-1.1,1.6-2,2c-0.4,0.2-0.9,0.3-1.7,0.3c-0.7,0-1,0-2.8,0c-1.9,0-2.1,0-2.8,0
				c-0.7,0-1.2-0.1-1.7-0.3c-0.5-0.2-0.9-0.4-1.2-0.8c-0.3-0.3-0.6-0.8-0.8-1.2c-0.2-0.4-0.3-0.9-0.3-1.7c0-0.7,0-1,0-2.8
				s0-2.1,0-2.8c0-0.7,0.1-1.2,0.3-1.7c0.2-0.5,0.4-0.9,0.8-1.2c0.3-0.3,0.8-0.6,1.2-0.8c0.4-0.2,0.9-0.3,1.7-0.3c0.7,0,1,0,2.8,0
				s2.1,0,2.8,0c0.7,0,1.2,0.1,1.7,0.3c0.5,0.2,0.9,0.4,1.2,0.8c0.3,0.3,0.6,0.8,0.8,1.2c0.2,0.4,0.3,0.9,0.3,1.7c0,0.7,0,1,0,2.8
				S-695.9,342.3-695.9,343.1z"/>
		</g>
		<g>
			<path class="st6" d="M-738.6,342.5l3.9-2.2l-3.9-2.2V342.5z"/>
			<path class="st6" d="M-737.1,328.4c-6.6,0-11.9,5.3-11.9,11.9s5.3,11.9,11.9,11.9c6.6,0,11.9-5.3,11.9-11.9
				S-730.6,328.4-737.1,328.4z M-729.7,340.3c0,0,0,2.4-0.3,3.6c-0.2,0.6-0.7,1.1-1.3,1.3c-1.2,0.3-5.8,0.3-5.8,0.3s-4.6,0-5.8-0.3
				c-0.6-0.2-1.1-0.7-1.3-1.3c-0.3-1.1-0.3-3.6-0.3-3.6s0-2.4,0.3-3.6c0.2-0.6,0.7-1.1,1.3-1.3c1.2-0.3,5.8-0.3,5.8-0.3
				s4.6,0,5.8,0.3c0.6,0.2,1.1,0.7,1.3,1.3C-729.7,337.8-729.7,340.3-729.7,340.3z"/>
		</g>
		<text transform="matrix(1 0 0 1 -837.6293 315.178)" class="st6" style="font-family:'OpenSans-Semibold'; font-size:12px;">Síguenos en nuestras redes sociales</text>
	</g>
	<g>
		
			<image style="overflow:visible;opacity:0.45;" width="1488" height="68" xlink:href="7F9CF08614C2842C.png"  transform="matrix(1 0 0 1 -1914.0621 -368.7736)">
		</image>
		<g>
			<rect x="-1901.6" y="-363.6" class="st18" width="1462.8" height="43.1"/>
		</g>
	</g>
	<g>
		<g>
			<text transform="matrix(1 0 0 1 -1733.5933 -334.8026)" class="st19" style="font-family:'OpenSans'; font-size:16px;">Misión</text>
		</g>
	</g>
	<g>
		<text transform="matrix(1 0 0 1 -1618.1522 -334.8026)" class="st19" style="font-family:'OpenSans'; font-size:16px;">Visión</text>
	</g>
	
		<text transform="matrix(1 0 0 1 -3950.373 -556.9621)" class="st9" style="font-family:'OpenSans-Semibold'; font-size:48px; text-decoration: underline;">MOBILE</text>
	
		<text transform="matrix(1 0 0 1 -2622.74 -556.9621)" class="st9" style="font-family:'OpenSans-Semibold'; font-size:48px; text-decoration: underline;">TABLET</text>
	
		<text transform="matrix(1 0 0 1 -1254.2277 -556.9621)" class="st9" style="font-family:'OpenSans-Semibold'; font-size:48px; text-decoration: underline;">DESKTOP</text>
	<g>
		<path class="st6" d="M19.3,19.2h-7.6l-4,8h3L10.6,28h-6l0.1-0.7h2L19.5,2H24l3.7,25.3h2.2L29.8,28H18.2l0.1-0.7h2L19.3,19.2z
			 M12.1,18.4h7.2L17.9,7.1L12.1,18.4z"/>
		<path class="st6" d="M41.9,24.6c0-2-1.7-2.5-4.2-3.5c-2.1-0.8-4.4-2-4.4-5.1c0-4.1,4-6.1,9.1-6.1c3,0,6.7,0.5,6.7,3.7
			c0,1.7-1.2,2.8-3.1,2.8c-1.3,0-2.5-0.7-2.5-1.8c0-0.6,0.1-1.2,0.6-1.8h1.2c0.1-0.3,0.2-0.6,0.2-0.9c0-0.9-0.8-1.3-2.5-1.3
			c-2.8,0-4,1.2-4,2.5c0,1.8,1.3,2.3,3.8,3.3c2.5,1,5.3,1.9,5.3,5.1c0,4.5-4.2,6.8-9.8,6.8c-4.2,0-7-1.3-7-4.1c0-2,1.3-3.1,3.2-3.1
			c1.6,0,2.5,1,2.5,2.3c0,0.5-0.1,1-0.3,1.5H35c-0.1,0.3-0.1,0.5-0.1,0.7c0,1,0.9,1.8,3,1.8C41.1,27.5,41.9,25.8,41.9,24.6z"/>
		<path class="st6" d="M67.6,14c0,3.7-4,4.7-7.5,5.2c-1.2,0.1-2.1,0.2-2.9,0.2c-0.5,5.3,0.5,7.5,3.1,7.5c1.8,0,3.8-1.3,5.1-5.4
			l0.7,0.2c-1.4,4.6-4.1,6.5-8.6,6.5c-4.7,0-7.5-2.5-7.5-6.9c0-7.6,4.6-11.6,11.2-11.6C65.6,9.8,67.6,11.3,67.6,14z M61.1,10.5
			c-2,0-3.2,3.7-3.7,8.2c2.5-0.1,4.8-1.3,4.8-5.9C62.2,11.4,61.9,10.5,61.1,10.5z"/>
		<path class="st6" d="M71.9,34.1c-0.3,1.5,0.4,2.3,2.1,2.3c2.9,0,4.4-2,6-8.5c0.2-1,0.4-1.5,0.6-2.8l-0.1-0.1
			c-0.9,1.7-2.5,3.2-5.7,3.2c-3.8,0-5.9-2.1-5.9-6.4c0-5.6,2.2-12.1,8.9-12.1c2.8,0,3.8,1.6,4.4,2.7l0.5-2.2c1.8,0,5.4,0,6.8-0.3
			c-0.8,3.8-1.3,5.7-2.8,15.5c-1.2,7.9-6,11.7-12.7,11.7c-3.3,0-6.6-1.3-6.6-4.3c0-2.4,1.6-3.7,3.5-3.7c1.9,0,3.6,1.1,3.1,4.1
			L71.9,34.1z M80.4,23c0.8-2.3,1.4-5.4,1.4-8c0-2.4-0.8-3.9-2.1-3.9c-1.3,0-2.1,1.3-2.8,3.8c-0.8,2.9-1.3,6.1-1.3,9.2
			c0,1.4,0.3,2.8,1.7,2.8C78.3,26.9,79.5,25.7,80.4,23z"/>
		<path class="st6" d="M94.5,10.9h-2.5l0.1-0.7h9.5c-1.6,7-2.5,11.2-2.9,13.9c-0.1,0.9-0.4,2.2,0.9,2.2c1.6,0,3.5-3.8,4.5-9.2
			c0.4-2.1,0.8-4.8,0.8-6.4c1.2,0,6.4-0.2,7.5-0.4c-0.9,4.5-2.2,11-2.6,14.4c-0.1,1.2-0.3,2.4,0.9,2.4c0.7,0,1.5-0.6,2.5-2.1
			l0.6,0.4c-1.5,2.3-3.2,3.1-5.4,3.1c-4.2,0-5.6-2.1-4.3-6.4l-0.2-0.1c-1.3,3.6-3.2,6.4-7.5,6.4c-3.5,0-4.7-2.5-4.1-5.7
			C92.7,19.5,94,13.2,94.5,10.9z"/>
		<path class="st6" d="M116.4,20.6l1.3-9.7h-2.5l0.1-0.7h9.2l-1.6,7l0.2,0c1.1-2.9,3.8-7.4,7.9-7.4c1.6,0,3.5,0.8,3.5,3.3
			c0,2.5-1.6,3.6-3.5,3.6c-0.8,0-1.7-0.2-2.6-0.6l-0.2-3.1c-2,0.1-4,2.8-4.9,6.9c-0.8,3.4-1,5.7-1,7.9c-1.6-0.1-5.6,0.2-7.5,0.5
			L116.4,20.6z"/>
		<path class="st6" d="M156.5,25.2c-1.3,2.2-2.9,3.2-5,3.2c-3.7,0-5.1-1.9-4.5-4.9l-0.2,0c-1,2.9-2.9,4.9-6.2,4.9
			c-4.3,0-6-2.5-6-6.5c0-6.9,3.1-12,9.2-12c2.8,0,3.6,1,4.2,2.5l0.5-2c1.8,0,5.4,0,6.8-0.3c-0.9,4.6-1.9,8.9-2.7,14.3
			c-0.1,0.5-0.1,1-0.1,1.3c0,1,0.4,1.2,1,1.2c0.6,0,1.4-0.4,2.5-2L156.5,25.2z M146.3,22.6c0.8-2.6,1.3-5.7,1.3-8.7
			c0-2.2-1-3.1-2.1-3.1c-1.1,0-1.9,1-2.6,3.7c-0.8,2.9-1.5,7-1.5,9.7c0,1.3,0.1,2.7,1.6,2.7C144.1,26.9,145.4,25.6,146.3,22.6z"/>
		<path class="st6" d="M177.4,14.9c-0.6,3.5-1.2,6.6-1.7,9.5c-0.1,0.5-0.1,1-0.1,1.3c0,1,0.4,1.2,1,1.2c0.6,0,1.4-0.4,2.5-2l0.6,0.3
			c-1.3,2.2-3,3.2-5.1,3.2c-3.7,0-5.1-1.9-4.5-4.9l-0.2,0c-1,2.9-2.9,4.9-6.2,4.9c-4.3,0-6-2.5-6-6.5c0-6.9,3.1-12,9.2-12
			c2.6,0,3.7,1.2,4.3,2.9l1.8-12h-2.4l0.1-0.7h9.5L177.4,14.9z M169.3,22.6c0.8-2.6,1.3-5.7,1.3-8.7c0-2.2-1-3.1-2.1-3.1
			c-1.1,0-1.9,1-2.6,3.7c-0.8,2.9-1.5,7-1.5,9.7c0,1.3,0.1,2.7,1.6,2.7C167.1,26.9,168.4,25.6,169.3,22.6z"/>
		<path class="st6" d="M180.7,21.3c0-6.7,3.8-11.5,11-11.5c5,0,7.6,2,7.6,6.7c0,7.8-4.4,11.8-10.9,11.8
			C183.2,28.3,180.7,25.9,180.7,21.3z M193,13.1c0-1.7-0.4-2.6-1.5-2.6c-2.3,0-2.9,2.9-4,8.8c-0.4,2.4-0.6,4.5-0.6,5.8
			c0,1.7,0.4,2.5,1.7,2.5c2.1,0,2.6-2,3.8-8.9C192.7,16.4,193,14.5,193,13.1z"/>
		<path class="st6" d="M211,24.6c0-2-1.7-2.5-4.2-3.5c-2.1-0.8-4.4-2-4.4-5.1c0-4.1,4-6.1,9.1-6.1c3,0,6.7,0.5,6.7,3.7
			c0,1.7-1.2,2.8-3.1,2.8c-1.3,0-2.5-0.7-2.5-1.8c0-0.6,0.1-1.2,0.6-1.8h1.2c0.1-0.3,0.2-0.6,0.2-0.9c0-0.9-0.8-1.3-2.5-1.3
			c-2.8,0-4,1.2-4,2.5c0,1.8,1.3,2.3,3.8,3.3c2.5,1,5.3,1.9,5.3,5.1c0,4.5-4.2,6.8-9.8,6.8c-4.2,0-7-1.3-7-4.1c0-2,1.3-3.1,3.2-3.1
			c1.6,0,2.5,1,2.5,2.3c0,0.5-0.1,1-0.3,1.5h-1.5c-0.1,0.3-0.1,0.5-0.1,0.7c0,1,0.9,1.8,3,1.8C210.2,27.5,211,25.8,211,24.6z"/>
		<path class="st16" d="M226.7,24.4c0,2.4-1.5,3.9-3.8,3.9c-2.1,0-2.8-1.5-2.8-2.8c0-2.2,1.9-3.7,3.8-3.7
			C225.6,21.9,226.7,22.8,226.7,24.4z"/>
		<path class="st16" d="M237.6,25.1c-0.3,1.3-1.2,3-3.7,3c-2.4,0-3.6-1.2-3.6-3.3c0-3.1,1.9-5.2,5.3-5.2c1.9,0,2.7,0.9,2.7,1.9
			c0,0.9-0.5,1.8-1.7,1.8c-0.9,0-1.2-0.6-1.2-1.1c0-0.3,0.1-0.6,0.3-0.9h0.7c0.1-0.3,0.2-0.6,0.2-0.8c0-0.5-0.4-0.7-0.7-0.7
			c-1.1,0-1.7,1.3-1.9,2.9c-0.2,0.9-0.3,1.8-0.3,2.7c0,1.4,0.4,2,1.4,2c0.8,0,1.8-0.7,2.3-2.5L237.6,25.1z"/>
		<path class="st16" d="M238.6,24.9c0-3.1,1.8-5.3,5.1-5.3c2.3,0,3.5,0.9,3.5,3.1c0,3.6-2,5.4-5,5.4C239.8,28.1,238.6,27,238.6,24.9
			z M244.3,21.1c0-0.8-0.2-1.2-0.7-1.2c-1.1,0-1.4,1.3-1.8,4.1c-0.2,1.1-0.3,2.1-0.3,2.7c0,0.8,0.2,1.2,0.8,1.2c1,0,1.2-0.9,1.8-4.1
			C244.2,22.6,244.3,21.8,244.3,21.1z"/>
		<path class="st16" d="M254.3,22c0.3-1.1,0.3-1.5-0.2-1.5c-0.4,0-0.9,0.4-1.6,1.8c-0.6,1.3-1,2.9-1.2,5.6c-0.5,0-2.9,0.1-3.4,0.2
			l0.7-3.2l0.7-4.8h-1.2l0-0.3h4.4l-0.7,2.9l0.1,0c0.8-1.7,1.6-3,3.6-3c1.1,0,1.6,0.6,1.6,1.4c0,0.4-0.1,0.8-0.3,1.3l0.1,0
			c0.5-1,1.3-2.7,3.3-2.7c1.2,0,1.8,0.7,1.8,1.6c0,0.6-0.1,1-0.2,1.5l-0.8,3.2c-0.1,0.4-0.2,0.9-0.2,1.1c0,0.3,0.2,0.4,0.4,0.4
			c0.3,0,0.7-0.3,1.1-1l0.3,0.2c-0.7,1-1.3,1.5-2.5,1.5c-1.3,0-2.3-0.6-2.3-2c0-1.1,0.9-3.8,1-4.1c0.3-0.8,0.6-1.5,0-1.5
			c-0.4,0-0.9,0.5-1.4,1.5c-0.7,1.4-1.1,3.4-1.4,5.9c-0.5,0-2.8,0.1-3.3,0.2C253.2,26,253.7,24.2,254.3,22z"/>
	</g>
</g>
</svg>
